<svg xmlns="http://www.w3.org/2000/svg" xmlns:xlink="http://www.w3.org/1999/xlink" width="137" zoomAndPan="magnify" viewBox="0 0 102.75 109.499999" height="146" preserveAspectRatio="xMidYMid meet" version="1.0"><defs><g/><clipPath id="5bbd0837ff"><path d="M 0.109375 0 L 102.390625 0 L 102.390625 102.28125 L 0.109375 102.28125 Z M 0.109375 0 " clip-rule="nonzero"/></clipPath><clipPath id="e727a1ed49"><path d="M 35.945312 0 L 102.390625 0 L 66.554688 102.28125 L 0.109375 102.28125 Z M 35.945312 0 " clip-rule="nonzero"/></clipPath></defs><g clip-path="url(#5bbd0837ff)"><g clip-path="url(#e727a1ed49)"><path fill="#38b6ff" d="M 0.109375 0 L 102.390625 0 L 102.390625 102.28125 L 0.109375 102.28125 Z M 0.109375 0 " fill-opacity="1" fill-rule="nonzero"/></g></g><g fill="#ffffff" fill-opacity="1"><g transform="translate(29.797744, 71.299433)"><g><path d="M 44.71875 0 L 31.65625 0 L 21.171875 -15.109375 L 10.703125 0 L -1.828125 0 L 14.9375 -23.859375 L 0.96875 -44.34375 L 13 -44.34375 L 21.171875 -32.25 L 29.34375 -44.34375 L 41.921875 -44.34375 L 27.40625 -23.859375 Z M 44.71875 0 "/></g></g></g></svg>