<svg xmlns="http://www.w3.org/2000/svg" xmlns:xlink="http://www.w3.org/1999/xlink" width="415" zoomAndPan="magnify" viewBox="0 0 311.25 123.749996" height="165" preserveAspectRatio="xMidYMid meet" version="1.0"><defs><g/><clipPath id="147e9265ff"><path d="M 0 1.859375 L 310.5 1.859375 L 310.5 115.585938 L 0 115.585938 Z M 0 1.859375 " clip-rule="nonzero"/></clipPath><clipPath id="64c43b8b3c"><path d="M 35.914062 1.859375 L 310.5 1.859375 L 274.589844 115.585938 L 0 115.585938 Z M 35.914062 1.859375 " clip-rule="nonzero"/></clipPath></defs><g clip-path="url(#147e9265ff)"><g clip-path="url(#64c43b8b3c)"><path fill="#38b6ff" d="M 0 1.859375 L 310.523438 1.859375 L 310.523438 115.585938 L 0 115.585938 Z M 0 1.859375 " fill-opacity="1" fill-rule="nonzero"/></g></g><g fill="#ffffff" fill-opacity="1"><g transform="translate(49.749262, 79.299003)"><g><path d="M 23.234375 -53.625 C 26.085938 -53.625 28.875 -53.207031 31.59375 -52.375 C 34.320312 -51.550781 36.347656 -50.734375 37.671875 -49.921875 L 39.578125 -48.65625 L 34.734375 -39.078125 C 34.347656 -39.328125 33.8125 -39.65625 33.125 -40.0625 C 32.445312 -40.46875 31.171875 -41.007812 29.296875 -41.6875 C 27.429688 -42.375 25.6875 -42.71875 24.0625 -42.71875 C 22.0625 -42.71875 20.519531 -42.289062 19.4375 -41.4375 C 18.351562 -40.582031 17.8125 -39.429688 17.8125 -37.984375 C 17.8125 -37.265625 18.066406 -36.59375 18.578125 -35.96875 C 19.085938 -35.351562 19.957031 -34.691406 21.1875 -33.984375 C 22.425781 -33.285156 23.515625 -32.722656 24.453125 -32.296875 C 25.390625 -31.878906 26.835938 -31.242188 28.796875 -30.390625 C 32.203125 -28.941406 35.101562 -26.972656 37.5 -24.484375 C 39.90625 -21.992188 41.109375 -19.175781 41.109375 -16.03125 C 41.109375 -13 40.566406 -10.351562 39.484375 -8.09375 C 38.398438 -5.84375 36.910156 -4.078125 35.015625 -2.796875 C 33.117188 -1.523438 31.019531 -0.582031 28.71875 0.03125 C 26.425781 0.644531 23.941406 0.953125 21.265625 0.953125 C 18.960938 0.953125 16.703125 0.71875 14.484375 0.25 C 12.273438 -0.21875 10.425781 -0.800781 8.9375 -1.5 C 7.445312 -2.195312 6.101562 -2.882812 4.90625 -3.5625 C 3.71875 -4.25 2.847656 -4.828125 2.296875 -5.296875 L 1.46875 -6 L 7.46875 -16.09375 C 7.976562 -15.664062 8.679688 -15.117188 9.578125 -14.453125 C 10.472656 -13.796875 12.054688 -12.914062 14.328125 -11.8125 C 16.609375 -10.707031 18.617188 -10.15625 20.359375 -10.15625 C 25.429688 -10.15625 27.96875 -11.878906 27.96875 -15.328125 C 27.96875 -16.046875 27.785156 -16.710938 27.421875 -17.328125 C 27.054688 -17.953125 26.414062 -18.570312 25.5 -19.1875 C 24.59375 -19.800781 23.785156 -20.289062 23.078125 -20.65625 C 22.378906 -21.019531 21.226562 -21.570312 19.625 -22.3125 C 18.03125 -23.0625 16.851562 -23.625 16.09375 -24 C 12.894531 -25.582031 10.421875 -27.550781 8.671875 -29.90625 C 6.929688 -32.269531 6.0625 -34.816406 6.0625 -37.546875 C 6.0625 -42.265625 7.804688 -46.125 11.296875 -49.125 C 14.785156 -52.125 18.765625 -53.625 23.234375 -53.625 Z M 23.234375 -53.625 "/></g></g></g><g fill="#ffffff" fill-opacity="1"><g transform="translate(92.651245, 79.299003)"><g><path d="M 21.265625 -24.453125 C 19.128906 -24.453125 17.296875 -23.664062 15.765625 -22.09375 C 14.234375 -20.519531 13.46875 -18.625 13.46875 -16.40625 C 13.46875 -14.15625 14.234375 -12.238281 15.765625 -10.65625 C 17.296875 -9.082031 19.128906 -8.296875 21.265625 -8.296875 C 22.285156 -8.296875 23.25 -8.421875 24.15625 -8.671875 C 25.070312 -8.929688 25.742188 -9.191406 26.171875 -9.453125 L 26.75 -9.828125 L 30.578125 -1.984375 C 30.285156 -1.765625 29.867188 -1.492188 29.328125 -1.171875 C 28.796875 -0.859375 27.582031 -0.425781 25.6875 0.125 C 23.800781 0.675781 21.769531 0.953125 19.59375 0.953125 C 14.789062 0.953125 10.566406 -0.734375 6.921875 -4.109375 C 3.285156 -7.492188 1.46875 -11.550781 1.46875 -16.28125 C 1.46875 -21.050781 3.285156 -25.144531 6.921875 -28.5625 C 10.566406 -31.988281 14.789062 -33.703125 19.59375 -33.703125 C 21.769531 -33.703125 23.769531 -33.445312 25.59375 -32.9375 C 27.425781 -32.425781 28.726562 -31.914062 29.5 -31.40625 L 30.578125 -30.640625 L 26.75 -22.921875 C 25.34375 -23.941406 23.515625 -24.453125 21.265625 -24.453125 Z M 21.265625 -24.453125 "/></g></g></g><g fill="#ffffff" fill-opacity="1"><g transform="translate(123.997788, 79.299003)"><g><path d="M 6.0625 -4.046875 C 3 -7.390625 1.46875 -11.488281 1.46875 -16.34375 C 1.46875 -21.195312 3 -25.300781 6.0625 -28.65625 C 9.125 -32.019531 13.019531 -33.703125 17.75 -33.703125 C 22.09375 -33.703125 25.664062 -32.34375 28.46875 -29.625 L 28.46875 -32.75 L 39.78125 -32.75 L 39.78125 0 L 28.609375 0 L 28.609375 -3.703125 L 28.46875 -3.703125 C 25.664062 -0.597656 22.09375 0.953125 17.75 0.953125 C 13.019531 0.953125 9.125 -0.710938 6.0625 -4.046875 Z M 15.671875 -21.890625 C 14.203125 -20.453125 13.46875 -18.601562 13.46875 -16.34375 C 13.46875 -14.082031 14.171875 -12.238281 15.578125 -10.8125 C 16.984375 -9.394531 18.832031 -8.6875 21.125 -8.6875 C 23.34375 -8.6875 25.164062 -9.410156 26.59375 -10.859375 C 28.019531 -12.304688 28.734375 -14.132812 28.734375 -16.34375 C 28.734375 -18.601562 28 -20.453125 26.53125 -21.890625 C 25.0625 -23.335938 23.257812 -24.0625 21.125 -24.0625 C 18.957031 -24.0625 17.140625 -23.335938 15.671875 -21.890625 Z M 15.671875 -21.890625 "/></g></g></g><g fill="#ffffff" fill-opacity="1"><g transform="translate(167.60204, 79.299003)"><g><path d="M 3.828125 0 L 3.828125 -32.75 L 15.125 -32.75 L 15.125 -29.296875 L 15.265625 -29.296875 C 18.191406 -32.234375 21.316406 -33.703125 24.640625 -33.703125 C 26.253906 -33.703125 27.859375 -33.488281 29.453125 -33.0625 C 31.054688 -32.644531 32.59375 -31.988281 34.0625 -31.09375 C 35.53125 -30.195312 36.722656 -28.925781 37.640625 -27.28125 C 38.554688 -25.644531 39.015625 -23.742188 39.015625 -21.578125 L 39.015625 0 L 27.703125 0 L 27.703125 -18.515625 C 27.703125 -20.210938 27.160156 -21.703125 26.078125 -22.984375 C 24.992188 -24.265625 23.578125 -24.90625 21.828125 -24.90625 C 20.128906 -24.90625 18.585938 -24.242188 17.203125 -22.921875 C 15.816406 -21.597656 15.125 -20.128906 15.125 -18.515625 L 15.125 0 Z M 3.828125 0 "/></g></g></g><g fill="#ffffff" fill-opacity="1"><g transform="translate(209.801755, 79.299003)"><g><path d="M 53.125 0 L 37.609375 0 L 25.15625 -17.9375 L 12.703125 0 L -2.171875 0 L 17.75 -28.34375 L 1.15625 -52.671875 L 15.453125 -52.671875 L 25.15625 -38.3125 L 34.859375 -52.671875 L 49.796875 -52.671875 L 32.5625 -28.34375 Z M 53.125 0 "/></g></g></g></svg>