<svg xmlns="http://www.w3.org/2000/svg" width="279" height="300" fill="none"><path fill="#fff" d="M1.93 2.45a1.2 1.2 0 1 0 0-2.4 1.2 1.2 0 0 0 0 2.4zm13.78 0a1.2 1.2 0 1 0 0-2.4 1.2 1.2 0 0 0 0 2.4zm14.98-1.2c0 .66-.54 1.2-1.2 1.2-.66 0-1.2-.54-1.2-1.2 0-.66.54-1.2 1.2-1.2.66 0 1.2.54 1.2 1.2zm12.58 1.2a1.2 1.2 0 1 0 0-2.4 1.2 1.2 0 0 0 0 2.4zm13.78 0a1.2 1.2 0 1 0 0-2.4 1.2 1.2 0 0 0 0 2.4zm13.78 0a1.2 1.2 0 1 0 0-2.4 1.2 1.2 0 0 0 0 2.4zm13.79 0a1.2 1.2 0 1 0 0-2.4 1.2 1.2 0 0 0 0 2.4zm13.78 0a1.2 1.2 0 1 0 0-2.4 1.2 1.2 0 0 0 0 2.4zm13.78 0a1.2 1.2 0 1 0-.001-2.4 1.2 1.2 0 0 0 .001 2.4zm14.98-1.2c0 .66-.54 1.2-1.2 1.2-.66 0-1.2-.54-1.2-1.2 0-.66.54-1.2 1.2-1.2.66 0 1.2.54 1.2 1.2zm12.58 1.2a1.2 1.2 0 1 0 0-2.401 1.2 1.2 0 0 0 0 2.401zm13.779 0a1.2 1.2 0 1 0 0-2.4 1.2 1.2 0 0 0 0 2.4zm13.79 0a1.2 1.2 0 1 0 0-2.4 1.2 1.2 0 0 0 0 2.4zm13.781 0a1.2 1.2 0 1 0 0-2.401 1.2 1.2 0 0 0 0 2.401zm13.779 0a1.2 1.2 0 1 0 0-2.4 1.2 1.2 0 0 0 0 2.4zm13.781 0a1.2 1.2 0 1 0 0-2.401 1.2 1.2 0 0 0 0 2.401zm13.78 0a1.2 1.2 0 1 0-.001-2.4 1.2 1.2 0 0 0 .001 2.4zm13.78 0a1.2 1.2 0 1 0 0-2.4 1.2 1.2 0 0 0 0 2.4zm14.98-1.2c0 .66-.54 1.2-1.2 1.2-.66 0-1.2-.54-1.2-1.2 0-.66.54-1.2 1.2-1.2.67 0 1.2.54 1.2 1.2zm12.59 1.2a1.2 1.2 0 1 0 0-2.401 1.2 1.2 0 0 0 0 2.401zm13.779 0a1.2 1.2 0 1 0 0-2.4 1.2 1.2 0 0 0 0 2.4zM1.93 15.93a1.2 1.2 0 1 0 0-2.4 1.2 1.2 0 0 0 0 2.4zm13.78 0a1.2 1.2 0 1 0 0-2.4 1.2 1.2 0 0 0 0 2.4zm14.98-1.2c0 .66-.54 1.2-1.2 1.2-.66 0-1.2-.54-1.2-1.2 0-.66.54-1.2 1.2-1.2.66.01 1.2.54 1.2 1.2zm12.58 1.2a1.2 1.2 0 1 0 0-2.4 1.2 1.2 0 0 0 0 2.4zm13.78 0a1.2 1.2 0 1 0 0-2.4 1.2 1.2 0 0 0 0 2.4zm13.78 0a1.2 1.2 0 1 0 0-2.4 1.2 1.2 0 0 0 0 2.4zm13.79 0a1.2 1.2 0 1 0 0-2.4 1.2 1.2 0 0 0 0 2.4zm13.78 0a1.2 1.2 0 1 0 0-2.4 1.2 1.2 0 0 0 0 2.4zm13.78 0a1.2 1.2 0 1 0-.001-2.4 1.2 1.2 0 0 0 .001 2.4zm14.98-1.2c0 .66-.54 1.2-1.2 1.2-.66 0-1.2-.54-1.2-1.2 0-.66.54-1.2 1.2-1.2.66.01 1.2.54 1.2 1.2zm12.58 1.2a1.2 1.2 0 1 0-.001-2.401 1.2 1.2 0 0 0 .001 2.401zm13.779 0a1.2 1.2 0 1 0 0-2.4 1.2 1.2 0 0 0 0 2.4zm13.79 0a1.2 1.2 0 1 0 0-2.4 1.2 1.2 0 0 0 0 2.4zm13.781 0a1.2 1.2 0 1 0-.001-2.401 1.2 1.2 0 0 0 .001 2.401zm13.779 0a1.2 1.2 0 1 0 0-2.4 1.2 1.2 0 0 0 0 2.4zm13.781 0a1.2 1.2 0 1 0-.001-2.401 1.2 1.2 0 0 0 .001 2.401zm13.78 0a1.2 1.2 0 1 0-.001-2.4 1.2 1.2 0 0 0 .001 2.4zm13.78 0a1.2 1.2 0 1 0 0-2.4 1.2 1.2 0 0 0 0 2.4zm14.98-1.2c0 .66-.54 1.2-1.2 1.2-.66 0-1.2-.54-1.2-1.2 0-.66.54-1.2 1.2-1.2.67.01 1.2.54 1.2 1.2zm12.59 1.2a1.2 1.2 0 1 0-.001-2.401 1.2 1.2 0 0 0 .001 2.401zm13.779 0a1.2 1.2 0 1 0 0-2.4 1.2 1.2 0 0 0 0 2.4zM1.93 29.42a1.2 1.2 0 1 0 0-2.4 1.2 1.2 0 0 0 0 2.4zm13.78 0a1.2 1.2 0 1 0 0-2.4 1.2 1.2 0 0 0 0 2.4zm14.98-1.2c0 .66-.54 1.2-1.2 1.2-.66 0-1.2-.54-1.2-1.2 0-.66.54-1.2 1.2-1.2.66 0 1.2.53 1.2 1.2zm12.58 1.2a1.2 1.2 0 1 0 0-2.4 1.2 1.2 0 0 0 0 2.4zm13.78 0a1.2 1.2 0 1 0 0-2.4 1.2 1.2 0 0 0 0 2.4zm13.78 0a1.2 1.2 0 1 0 0-2.4 1.2 1.2 0 0 0 0 2.4zm13.79 0a1.2 1.2 0 1 0 0-2.4 1.2 1.2 0 0 0 0 2.4zm13.78 0a1.2 1.2 0 1 0 0-2.4 1.2 1.2 0 0 0 0 2.4zm13.78 0a1.2 1.2 0 1 0-.001-2.4 1.2 1.2 0 0 0 .001 2.4zm14.98-1.2c0 .66-.54 1.2-1.2 1.2-.66 0-1.2-.54-1.2-1.2 0-.66.54-1.2 1.2-1.2.66 0 1.2.53 1.2 1.2zm12.58 1.2a1.2 1.2 0 1 0-.001-2.401 1.2 1.2 0 0 0 .001 2.401zm13.779 0a1.2 1.2 0 1 0 0-2.4 1.2 1.2 0 0 0 0 2.4zm13.79 0a1.2 1.2 0 1 0 0-2.4 1.2 1.2 0 0 0 0 2.4zm13.781 0a1.2 1.2 0 1 0-.001-2.401 1.2 1.2 0 0 0 .001 2.401zm13.779 0a1.2 1.2 0 1 0 0-2.4 1.2 1.2 0 0 0 0 2.4zm13.781 0a1.2 1.2 0 1 0-.001-2.401 1.2 1.2 0 0 0 .001 2.401zm13.78 0a1.2 1.2 0 1 0-.001-2.4 1.2 1.2 0 0 0 .001 2.4zm13.78 0a1.2 1.2 0 1 0 0-2.4 1.2 1.2 0 0 0 0 2.4zm14.98-1.2c0 .66-.54 1.2-1.2 1.2-.66 0-1.2-.54-1.2-1.2 0-.66.54-1.2 1.2-1.2.67 0 1.2.53 1.2 1.2zm12.59 1.2a1.2 1.2 0 1 0-.001-2.401 1.2 1.2 0 0 0 .001 2.401zm13.779 0a1.2 1.2 0 1 0 0-2.4 1.2 1.2 0 0 0 0 2.4zM1.93 42.9a1.2 1.2 0 1 0 0-2.4 1.2 1.2 0 0 0 0 2.4zm13.78 0a1.2 1.2 0 1 0 0-2.4 1.2 1.2 0 0 0 0 2.4zm14.98-1.2c0 .66-.54 1.2-1.2 1.2-.66 0-1.2-.54-1.2-1.2 0-.66.54-1.2 1.2-1.2.66 0 1.2.54 1.2 1.2zm12.58 1.2a1.2 1.2 0 1 0 0-2.4 1.2 1.2 0 0 0 0 2.4zm13.78 0a1.2 1.2 0 1 0 0-2.4 1.2 1.2 0 0 0 0 2.4zm13.78 0a1.2 1.2 0 1 0 0-2.4 1.2 1.2 0 0 0 0 2.4zm13.79 0a1.2 1.2 0 1 0 0-2.4 1.2 1.2 0 0 0 0 2.4zm13.78 0a1.2 1.2 0 1 0 0-2.4 1.2 1.2 0 0 0 0 2.4zm13.78 0a1.2 1.2 0 1 0-.001-2.4 1.2 1.2 0 0 0 .001 2.4zm14.98-1.2c0 .66-.54 1.2-1.2 1.2-.66 0-1.2-.54-1.2-1.2 0-.66.54-1.2 1.2-1.2.66 0 1.2.54 1.2 1.2zm12.58 1.2a1.2 1.2 0 1 0-.001-2.401 1.2 1.2 0 0 0 .001 2.401zm13.779 0a1.2 1.2 0 1 0 0-2.4 1.2 1.2 0 0 0 0 2.4zm13.79 0a1.2 1.2 0 1 0 0-2.4 1.2 1.2 0 0 0 0 2.4zm13.781 0a1.2 1.2 0 1 0-.001-2.401 1.2 1.2 0 0 0 .001 2.401zm13.779 0a1.2 1.2 0 1 0 0-2.4 1.2 1.2 0 0 0 0 2.4zm13.781 0a1.2 1.2 0 1 0-.001-2.401 1.2 1.2 0 0 0 .001 2.401zm13.78 0a1.2 1.2 0 1 0-.001-2.4 1.2 1.2 0 0 0 .001 2.4zm13.78 0a1.2 1.2 0 1 0 0-2.4 1.2 1.2 0 0 0 0 2.4zm14.98-1.2c0 .66-.54 1.2-1.2 1.2-.66 0-1.2-.54-1.2-1.2 0-.66.54-1.2 1.2-1.2.67 0 1.2.54 1.2 1.2zm12.59 1.2a1.2 1.2 0 1 0-.001-2.401 1.2 1.2 0 0 0 .001 2.401zm13.779 0a1.2 1.2 0 1 0 0-2.4 1.2 1.2 0 0 0 0 2.4zM1.93 56.38a1.2 1.2 0 1 0 0-2.4 1.2 1.2 0 0 0 0 2.4zm13.78 0a1.2 1.2 0 1 0 0-2.4 1.2 1.2 0 0 0 0 2.4zm14.98-1.2c0 .66-.54 1.2-1.2 1.2-.66 0-1.2-.54-1.2-1.2 0-.66.54-1.2 1.2-1.2.66 0 1.2.54 1.2 1.2zm12.58 1.2a1.2 1.2 0 1 0 0-2.4 1.2 1.2 0 0 0 0 2.4zm13.78 0a1.2 1.2 0 1 0 0-2.4 1.2 1.2 0 0 0 0 2.4zm13.78 0a1.2 1.2 0 1 0 0-2.4 1.2 1.2 0 0 0 0 2.4zm13.79 0a1.2 1.2 0 1 0 0-2.4 1.2 1.2 0 0 0 0 2.4zm13.78 0a1.2 1.2 0 1 0 0-2.4 1.2 1.2 0 0 0 0 2.4zm13.78 0a1.2 1.2 0 1 0-.001-2.4 1.2 1.2 0 0 0 .001 2.4zm14.98-1.2c0 .66-.54 1.2-1.2 1.2-.66 0-1.2-.54-1.2-1.2 0-.66.54-1.2 1.2-1.2.66 0 1.2.54 1.2 1.2zm12.58 1.2a1.2 1.2 0 1 0-.001-2.401 1.2 1.2 0 0 0 .001 2.401zm13.779 0a1.2 1.2 0 1 0 0-2.4 1.2 1.2 0 0 0 0 2.4zm13.79 0a1.2 1.2 0 1 0 0-2.4 1.2 1.2 0 0 0 0 2.4zm13.781 0a1.2 1.2 0 1 0-.001-2.401 1.2 1.2 0 0 0 .001 2.401zm13.779 0a1.2 1.2 0 1 0 0-2.4 1.2 1.2 0 0 0 0 2.4zm13.781 0a1.2 1.2 0 1 0-.001-2.401 1.2 1.2 0 0 0 .001 2.401zm13.78 0a1.2 1.2 0 1 0-.001-2.4 1.2 1.2 0 0 0 .001 2.4zm13.78 0a1.2 1.2 0 1 0 0-2.4 1.2 1.2 0 0 0 0 2.4zm14.98-1.2c0 .66-.54 1.2-1.2 1.2-.66 0-1.2-.54-1.2-1.2 0-.66.54-1.2 1.2-1.2.67 0 1.2.54 1.2 1.2zm12.59 1.2a1.2 1.2 0 1 0-.001-2.401 1.2 1.2 0 0 0 .001 2.401zm13.779 0a1.2 1.2 0 1 0 0-2.4 1.2 1.2 0 0 0 0 2.4zM1.93 69.86a1.2 1.2 0 1 0 0-2.4 1.2 1.2 0 0 0 0 2.4zm13.78 0a1.2 1.2 0 1 0 0-2.4 1.2 1.2 0 0 0 0 2.4zm14.98-1.2c0 .66-.54 1.2-1.2 1.2-.66 0-1.2-.54-1.2-1.2 0-.66.54-1.2 1.2-1.2.66 0 1.2.54 1.2 1.2zm12.58 1.2a1.2 1.2 0 1 0 0-2.4 1.2 1.2 0 0 0 0 2.4zm13.78 0a1.2 1.2 0 1 0 0-2.4 1.2 1.2 0 0 0 0 2.4zm13.78 0a1.2 1.2 0 1 0 0-2.4 1.2 1.2 0 0 0 0 2.4zm13.79 0a1.2 1.2 0 1 0 0-2.4 1.2 1.2 0 0 0 0 2.4zm13.78 0a1.2 1.2 0 1 0 0-2.4 1.2 1.2 0 0 0 0 2.4zm13.78 0a1.2 1.2 0 1 0-.001-2.4 1.2 1.2 0 0 0 .001 2.4zm14.98-1.2c0 .66-.54 1.2-1.2 1.2-.66 0-1.2-.54-1.2-1.2 0-.66.54-1.2 1.2-1.2.66 0 1.2.54 1.2 1.2zm12.58 1.2a1.2 1.2 0 1 0-.001-2.401 1.2 1.2 0 0 0 .001 2.401zm13.779 0a1.2 1.2 0 1 0 0-2.4 1.2 1.2 0 0 0 0 2.4zm13.79 0a1.2 1.2 0 1 0 0-2.4 1.2 1.2 0 0 0 0 2.4zm13.781 0a1.2 1.2 0 1 0-.001-2.401 1.2 1.2 0 0 0 .001 2.401zm13.779 0a1.2 1.2 0 1 0 0-2.4 1.2 1.2 0 0 0 0 2.4zm13.781 0a1.2 1.2 0 1 0-.001-2.401 1.2 1.2 0 0 0 .001 2.401zm13.78 0a1.2 1.2 0 1 0-.001-2.4 1.2 1.2 0 0 0 .001 2.4zm13.78 0a1.2 1.2 0 1 0 0-2.4 1.2 1.2 0 0 0 0 2.4zm14.98-1.2c0 .66-.54 1.2-1.2 1.2-.66 0-1.2-.54-1.2-1.2 0-.66.54-1.2 1.2-1.2.67 0 1.2.54 1.2 1.2zm12.59 1.2a1.2 1.2 0 1 0-.001-2.401 1.2 1.2 0 0 0 .001 2.401zm13.779 0a1.2 1.2 0 1 0 0-2.4 1.2 1.2 0 0 0 0 2.4zM1.93 83.34a1.2 1.2 0 1 0 0-2.4 1.2 1.2 0 0 0 0 2.4zm13.78 0a1.2 1.2 0 1 0 0-2.4 1.2 1.2 0 0 0 0 2.4zm14.98-1.2c0 .66-.54 1.2-1.2 1.2-.66 0-1.2-.54-1.2-1.2 0-.66.54-1.2 1.2-1.2.66.01 1.2.54 1.2 1.2zm12.58 1.2a1.2 1.2 0 1 0 0-2.4 1.2 1.2 0 0 0 0 2.4zm13.78 0a1.2 1.2 0 1 0 0-2.4 1.2 1.2 0 0 0 0 2.4zm13.78 0a1.2 1.2 0 1 0 0-2.4 1.2 1.2 0 0 0 0 2.4zm13.79 0a1.2 1.2 0 1 0 0-2.4 1.2 1.2 0 0 0 0 2.4zm13.78 0a1.2 1.2 0 1 0 0-2.4 1.2 1.2 0 0 0 0 2.4zm13.78 0a1.2 1.2 0 1 0-.001-2.4 1.2 1.2 0 0 0 .001 2.4zm14.98-1.2c0 .66-.54 1.2-1.2 1.2-.66 0-1.2-.54-1.2-1.2 0-.66.54-1.2 1.2-1.2.66.01 1.2.54 1.2 1.2zm12.58 1.2a1.2 1.2 0 1 0-.001-2.401 1.2 1.2 0 0 0 .001 2.401zm13.779 0a1.2 1.2 0 1 0 0-2.4 1.2 1.2 0 0 0 0 2.4zm13.79 0a1.2 1.2 0 1 0 0-2.4 1.2 1.2 0 0 0 0 2.4zm13.781 0a1.2 1.2 0 1 0-.001-2.401 1.2 1.2 0 0 0 .001 2.401zm13.779 0a1.2 1.2 0 1 0 0-2.4 1.2 1.2 0 0 0 0 2.4zm13.781 0a1.2 1.2 0 1 0-.001-2.401 1.2 1.2 0 0 0 .001 2.401zm13.78 0a1.2 1.2 0 1 0-.001-2.4 1.2 1.2 0 0 0 .001 2.4zm13.78 0a1.2 1.2 0 1 0 0-2.4 1.2 1.2 0 0 0 0 2.4zm14.98-1.2c0 .66-.54 1.2-1.2 1.2-.66 0-1.2-.54-1.2-1.2 0-.66.54-1.2 1.2-1.2.67.01 1.2.54 1.2 1.2zm12.59 1.2a1.2 1.2 0 1 0-.001-2.401 1.2 1.2 0 0 0 .001 2.401zm13.779 0a1.2 1.2 0 1 0 0-2.4 1.2 1.2 0 0 0 0 2.4zM1.93 96.83a1.2 1.2 0 1 0 0-2.4 1.2 1.2 0 0 0 0 2.4zm13.78 0a1.2 1.2 0 1 0 0-2.4 1.2 1.2 0 0 0 0 2.4zm14.98-1.2c0 .66-.54 1.2-1.2 1.2-.66 0-1.2-.54-1.2-1.2 0-.66.54-1.2 1.2-1.2.66 0 1.2.53 1.2 1.2zm12.58 1.2a1.2 1.2 0 1 0 0-2.4 1.2 1.2 0 0 0 0 2.4zm13.78 0a1.2 1.2 0 1 0 0-2.4 1.2 1.2 0 0 0 0 2.4zm13.78 0a1.2 1.2 0 1 0 0-2.4 1.2 1.2 0 0 0 0 2.4zm13.79 0a1.2 1.2 0 1 0 0-2.4 1.2 1.2 0 0 0 0 2.4zm13.78 0a1.2 1.2 0 1 0 0-2.4 1.2 1.2 0 0 0 0 2.4zm14.989-1.022a1.2 1.2 0 1 0-2.372-.366 1.2 1.2 0 0 0 2.372.366zm13.771-.178c0 .66-.54 1.2-1.2 1.2-.66 0-1.2-.54-1.2-1.2 0-.66.54-1.2 1.2-1.2.66 0 1.2.53 1.2 1.2zm12.58 1.2a1.2 1.2 0 1 0-.001-2.401 1.2 1.2 0 0 0 .001 2.401zm13.779 0a1.2 1.2 0 1 0 0-2.4 1.2 1.2 0 0 0 0 2.4zm13.79 0a1.2 1.2 0 1 0 0-2.4 1.2 1.2 0 0 0 0 2.4zm13.781 0a1.2 1.2 0 1 0-.001-2.401 1.2 1.2 0 0 0 .001 2.401zm13.779 0a1.2 1.2 0 1 0 0-2.4 1.2 1.2 0 0 0 0 2.4zm14.976-1.046a1.2 1.2 0 1 0-2.382-.3 1.2 1.2 0 0 0 2.382.3zm12.585 1.046a1.2 1.2 0 1 0-.001-2.4 1.2 1.2 0 0 0 .001 2.4zm13.78 0a1.2 1.2 0 1 0 0-2.4 1.2 1.2 0 0 0 0 2.4zm14.98-1.2c0 .66-.54 1.2-1.2 1.2-.66 0-1.2-.54-1.2-1.2 0-.66.54-1.2 1.2-1.2.67 0 1.2.53 1.2 1.2zm12.59 1.2a1.2 1.2 0 1 0-.001-2.401 1.2 1.2 0 0 0 .001 2.401zm13.779 0a1.2 1.2 0 1 0 0-2.4 1.2 1.2 0 0 0 0 2.4zM3.126 109.296a1.2 1.2 0 1 0-2.37-.387 1.2 1.2 0 0 0 2.37.387zm13.782.001a1.2 1.2 0 1 0-2.368-.386 1.2 1.2 0 0 0 2.368.386zm13.782-.187c0 .66-.54 1.2-1.2 1.2-.66 0-1.2-.54-1.2-1.2 0-.66.54-1.2 1.2-1.2.66 0 1.2.54 1.2 1.2zm13.76.126a1.2 1.2 0 1 0-2.383-.28 1.2 1.2 0 0 0 2.383.28zm13.803.065a1.2 1.2 0 1 0-2.368-.386 1.2 1.2 0 0 0 2.368.386zm13.781.002a1.2 1.2 0 1 0-2.37-.386 1.2 1.2 0 0 0 2.37.386zm13.783-.009a1.2 1.2 0 1 0-2.367-.386 1.2 1.2 0 0 0 2.367.386zm13.782.002a1.2 1.2 0 1 0-2.37-.386 1.2 1.2 0 0 0 2.37.386zm12.581 1.014a1.2 1.2 0 1 0 0-2.399 1.2 1.2 0 0 0 0 2.399zm14.98-1.2c0 .66-.54 1.2-1.2 1.2-.66 0-1.2-.54-1.2-1.2 0-.66.54-1.2 1.2-1.2.66 0 1.2.54 1.2 1.2zm13.784.19a1.201 1.201 0 1 0-2.372-.385 1.201 1.201 0 0 0 2.372.385zm13.781.001a1.2 1.2 0 1 0-2.368-.386 1.2 1.2 0 0 0 2.368.386zm13.783-.008a1.2 1.2 0 1 0-2.37-.387 1.2 1.2 0 0 0 2.37.387zm13.782.001a1.2 1.2 0 1 0-2.37-.385 1.2 1.2 0 0 0 2.37.385zm13.781.001a1.2 1.2 0 1 0-2.368-.386 1.2 1.2 0 0 0 2.368.386zm12.579 1.015a1.2 1.2 0 1 0 0-2.4 1.2 1.2 0 0 0 0 2.4zm14.984-1.012a1.199 1.199 0 1 0-2.369-.386 1.2 1.2 0 0 0 2.369.386zm13.782.002a1.2 1.2 0 1 0-2.368-.385 1.2 1.2 0 0 0 2.368.385zm13.774-.19c0 .66-.54 1.2-1.2 1.2-.66 0-1.2-.54-1.2-1.2 0-.66.54-1.2 1.2-1.2.67 0 1.2.54 1.2 1.2zm13.817.169a1.2 1.2 0 1 0-2.387-.249 1.2 1.2 0 0 0 2.387.249zm13.755.015a1.199 1.199 0 1 0-2.369-.386 1.201 1.201 0 0 0 2.369.386zM1.93 123.79a1.2 1.2 0 1 0 0-2.4 1.2 1.2 0 0 0 0 2.4zm13.78 0a1.2 1.2 0 1 0 0-2.4 1.2 1.2 0 0 0 0 2.4zm14.98-1.2c0 .66-.54 1.2-1.2 1.2-.66 0-1.2-.54-1.2-1.2 0-.66.54-1.2 1.2-1.2.66 0 1.2.54 1.2 1.2zm12.58 1.2a1.2 1.2 0 1 0 0-2.4 1.2 1.2 0 0 0 0 2.4zm13.78 0a1.2 1.2 0 1 0 0-2.4 1.2 1.2 0 0 0 0 2.4zm13.78 0a1.2 1.2 0 1 0 0-2.4 1.2 1.2 0 0 0 0 2.4zm13.79 0a1.2 1.2 0 1 0 0-2.4 1.2 1.2 0 0 0 0 2.4zm13.78 0a1.2 1.2 0 1 0 0-2.4 1.2 1.2 0 0 0 0 2.4zm13.78 0a1.2 1.2 0 1 0 0-2.399 1.2 1.2 0 0 0 0 2.399zm14.98-1.2c0 .66-.54 1.2-1.2 1.2-.66 0-1.2-.54-1.2-1.2 0-.66.54-1.2 1.2-1.2.66 0 1.2.54 1.2 1.2zm12.58 1.2a1.2 1.2 0 1 0 0-2.4 1.2 1.2 0 0 0 0 2.4zm13.779 0a1.2 1.2 0 1 0 0-2.4 1.2 1.2 0 0 0 0 2.4zm13.79 0a1.2 1.2 0 1 0 0-2.4 1.2 1.2 0 0 0 0 2.4zm13.781 0a1.2 1.2 0 1 0 0-2.4 1.2 1.2 0 0 0 0 2.4zm13.779 0a1.2 1.2 0 1 0 0-2.4 1.2 1.2 0 0 0 0 2.4zm13.781 0a1.2 1.2 0 1 0 0-2.4 1.2 1.2 0 0 0 0 2.4zm13.78 0a1.2 1.2 0 1 0 0-2.399 1.2 1.2 0 0 0 0 2.399zm13.78 0a1.2 1.2 0 1 0 0-2.4 1.2 1.2 0 0 0 0 2.4zm14.98-1.2c0 .66-.54 1.2-1.2 1.2-.66 0-1.2-.54-1.2-1.2 0-.66.54-1.2 1.2-1.2.67 0 1.2.54 1.2 1.2zm12.59 1.2a1.2 1.2 0 1 0 0-2.4 1.2 1.2 0 0 0 0 2.4zm13.779 0a1.2 1.2 0 1 0 0-2.4 1.2 1.2 0 0 0 0 2.4zM1.93 137.27a1.2 1.2 0 1 0 0-2.4 1.2 1.2 0 0 0 0 2.4zm13.78 0a1.2 1.2 0 1 0 0-2.4 1.2 1.2 0 0 0 0 2.4zm14.98-1.2c0 .66-.54 1.2-1.2 1.2-.66 0-1.2-.54-1.2-1.2 0-.66.54-1.2 1.2-1.2.66 0 1.2.54 1.2 1.2zm12.58 1.2a1.2 1.2 0 1 0 0-2.4 1.2 1.2 0 0 0 0 2.4zm13.78 0a1.2 1.2 0 1 0 0-2.4 1.2 1.2 0 0 0 0 2.4zm13.78 0a1.2 1.2 0 1 0 0-2.4 1.2 1.2 0 0 0 0 2.4zm13.79 0a1.2 1.2 0 1 0 0-2.4 1.2 1.2 0 0 0 0 2.4zm13.78 0a1.2 1.2 0 1 0 0-2.4 1.2 1.2 0 0 0 0 2.4zm13.78 0a1.2 1.2 0 1 0 0-2.399 1.2 1.2 0 0 0 0 2.399zm14.98-1.2c0 .66-.54 1.2-1.2 1.2-.66 0-1.2-.54-1.2-1.2 0-.66.54-1.2 1.2-1.2.66 0 1.2.54 1.2 1.2zm12.58 1.2a1.2 1.2 0 1 0 0-2.4 1.2 1.2 0 0 0 0 2.4zm13.779 0a1.2 1.2 0 1 0 0-2.4 1.2 1.2 0 0 0 0 2.4zm13.79 0a1.2 1.2 0 1 0 0-2.4 1.2 1.2 0 0 0 0 2.4zm13.781 0a1.2 1.2 0 1 0 0-2.4 1.2 1.2 0 0 0 0 2.4zm13.779 0a1.2 1.2 0 1 0 0-2.4 1.2 1.2 0 0 0 0 2.4zm13.781 0a1.2 1.2 0 1 0 0-2.4 1.2 1.2 0 0 0 0 2.4zm13.78 0a1.2 1.2 0 1 0 0-2.399 1.2 1.2 0 0 0 0 2.399zm13.78 0a1.2 1.2 0 1 0 0-2.4 1.2 1.2 0 0 0 0 2.4zm14.98-1.2c0 .66-.54 1.2-1.2 1.2-.66 0-1.2-.54-1.2-1.2 0-.66.54-1.2 1.2-1.2.67 0 1.2.54 1.2 1.2zm12.59 1.2a1.2 1.2 0 1 0 0-2.4 1.2 1.2 0 0 0 0 2.4zm13.779 0a1.2 1.2 0 1 0 0-2.4 1.2 1.2 0 0 0 0 2.4zM1.93 150.75a1.2 1.2 0 1 0 0-2.4 1.2 1.2 0 0 0 0 2.4zm13.78 0a1.2 1.2 0 1 0 0-2.4 1.2 1.2 0 0 0 0 2.4zm14.98-1.2c0 .66-.54 1.2-1.2 1.2-.66 0-1.2-.54-1.2-1.2 0-.66.54-1.2 1.2-1.2.66.01 1.2.54 1.2 1.2zm12.58 1.2a1.2 1.2 0 1 0 0-2.4 1.2 1.2 0 0 0 0 2.4zm13.78 0a1.2 1.2 0 1 0 0-2.4 1.2 1.2 0 0 0 0 2.4zm13.78 0a1.2 1.2 0 1 0 0-2.4 1.2 1.2 0 0 0 0 2.4zm13.79 0a1.2 1.2 0 1 0 0-2.4 1.2 1.2 0 0 0 0 2.4zm13.78 0a1.2 1.2 0 1 0 0-2.4 1.2 1.2 0 0 0 0 2.4zm13.78 0a1.2 1.2 0 1 0 0-2.399 1.2 1.2 0 0 0 0 2.399zm14.98-1.2c0 .66-.54 1.2-1.2 1.2-.66 0-1.2-.54-1.2-1.2 0-.66.54-1.2 1.2-1.2.66.01 1.2.54 1.2 1.2zm12.58 1.2a1.2 1.2 0 1 0 0-2.4 1.2 1.2 0 0 0 0 2.4zm13.779 0a1.2 1.2 0 1 0 0-2.4 1.2 1.2 0 0 0 0 2.4zm13.79 0a1.2 1.2 0 1 0 0-2.4 1.2 1.2 0 0 0 0 2.4zm13.781 0a1.2 1.2 0 1 0 0-2.4 1.2 1.2 0 0 0 0 2.4zm13.779 0a1.2 1.2 0 1 0 0-2.4 1.2 1.2 0 0 0 0 2.4zm13.781 0a1.2 1.2 0 1 0 0-2.4 1.2 1.2 0 0 0 0 2.4zm13.78 0a1.2 1.2 0 1 0 0-2.399 1.2 1.2 0 0 0 0 2.399zm13.78 0a1.2 1.2 0 1 0 0-2.4 1.2 1.2 0 0 0 0 2.4zm14.98-1.2c0 .66-.54 1.2-1.2 1.2-.66 0-1.2-.54-1.2-1.2 0-.66.54-1.2 1.2-1.2.67.01 1.2.54 1.2 1.2zm12.59 1.2a1.2 1.2 0 1 0 0-2.4 1.2 1.2 0 0 0 0 2.4zm13.779 0a1.2 1.2 0 1 0 0-2.4 1.2 1.2 0 0 0 0 2.4zM1.93 164.24a1.2 1.2 0 1 0 0-2.4 1.2 1.2 0 0 0 0 2.4zm13.78 0a1.2 1.2 0 1 0 0-2.4 1.2 1.2 0 0 0 0 2.4zm14.98-1.2c0 .66-.54 1.2-1.2 1.2-.66 0-1.2-.54-1.2-1.2 0-.66.54-1.2 1.2-1.2.66 0 1.2.53 1.2 1.2zm12.58 1.2a1.2 1.2 0 1 0 0-2.4 1.2 1.2 0 0 0 0 2.4zm13.78 0a1.2 1.2 0 1 0 0-2.4 1.2 1.2 0 0 0 0 2.4zm13.78 0a1.2 1.2 0 1 0 0-2.4 1.2 1.2 0 0 0 0 2.4zm13.79 0a1.2 1.2 0 1 0 0-2.4 1.2 1.2 0 0 0 0 2.4zm13.78 0a1.2 1.2 0 1 0 0-2.4 1.2 1.2 0 0 0 0 2.4zm13.78 0a1.2 1.2 0 1 0 0-2.399 1.2 1.2 0 0 0 0 2.399zm14.98-1.2c0 .66-.54 1.2-1.2 1.2-.66 0-1.2-.54-1.2-1.2 0-.66.54-1.2 1.2-1.2.66 0 1.2.53 1.2 1.2zm12.58 1.2a1.2 1.2 0 1 0 0-2.4 1.2 1.2 0 0 0 0 2.4zm13.779 0a1.2 1.2 0 1 0 0-2.4 1.2 1.2 0 0 0 0 2.4zm13.79 0a1.2 1.2 0 1 0 0-2.4 1.2 1.2 0 0 0 0 2.4zm13.781 0a1.2 1.2 0 1 0 0-2.4 1.2 1.2 0 0 0 0 2.4zm13.779 0a1.2 1.2 0 1 0 0-2.4 1.2 1.2 0 0 0 0 2.4zm13.781 0a1.2 1.2 0 1 0 0-2.4 1.2 1.2 0 0 0 0 2.4zm13.78 0a1.2 1.2 0 1 0 0-2.399 1.2 1.2 0 0 0 0 2.399zm13.78 0a1.2 1.2 0 1 0 0-2.4 1.2 1.2 0 0 0 0 2.4zm14.98-1.2c0 .66-.54 1.2-1.2 1.2-.66 0-1.2-.54-1.2-1.2 0-.66.54-1.2 1.2-1.2.67 0 1.2.53 1.2 1.2zm12.59 1.2a1.2 1.2 0 1 0 0-2.4 1.2 1.2 0 0 0 0 2.4zm13.779 0a1.2 1.2 0 1 0 0-2.4 1.2 1.2 0 0 0 0 2.4zM1.93 177.72a1.2 1.2 0 1 0 0-2.4 1.2 1.2 0 0 0 0 2.4zm13.78 0a1.2 1.2 0 1 0 0-2.4 1.2 1.2 0 0 0 0 2.4zm14.98-1.2c0 .66-.54 1.2-1.2 1.2-.66 0-1.2-.54-1.2-1.2 0-.66.54-1.2 1.2-1.2.66 0 1.2.54 1.2 1.2zm12.58 1.2a1.2 1.2 0 1 0 0-2.4 1.2 1.2 0 0 0 0 2.4zm13.78 0a1.2 1.2 0 1 0 0-2.4 1.2 1.2 0 0 0 0 2.4zm13.78 0a1.2 1.2 0 1 0 0-2.4 1.2 1.2 0 0 0 0 2.4zm13.79 0a1.2 1.2 0 1 0 0-2.4 1.2 1.2 0 0 0 0 2.4zm13.78 0a1.2 1.2 0 1 0 0-2.4 1.2 1.2 0 0 0 0 2.4zm13.78 0a1.2 1.2 0 1 0 0-2.399 1.2 1.2 0 0 0 0 2.399zm14.98-1.2c0 .66-.54 1.2-1.2 1.2-.66 0-1.2-.54-1.2-1.2 0-.66.54-1.2 1.2-1.2.66 0 1.2.54 1.2 1.2zm12.58 1.2a1.2 1.2 0 1 0 0-2.4 1.2 1.2 0 0 0 0 2.4zm13.779 0a1.2 1.2 0 1 0 0-2.4 1.2 1.2 0 0 0 0 2.4zm13.79 0a1.2 1.2 0 1 0 0-2.4 1.2 1.2 0 0 0 0 2.4zm13.781 0a1.2 1.2 0 1 0 0-2.4 1.2 1.2 0 0 0 0 2.4zm13.779 0a1.2 1.2 0 1 0 0-2.4 1.2 1.2 0 0 0 0 2.4zm13.781 0a1.2 1.2 0 1 0 0-2.4 1.2 1.2 0 0 0 0 2.4zm13.78 0a1.2 1.2 0 1 0 0-2.399 1.2 1.2 0 0 0 0 2.399zm13.78 0a1.2 1.2 0 1 0 0-2.4 1.2 1.2 0 0 0 0 2.4zm14.98-1.2c0 .66-.54 1.2-1.2 1.2-.66 0-1.2-.54-1.2-1.2 0-.66.54-1.2 1.2-1.2.67 0 1.2.54 1.2 1.2zm12.59 1.2a1.2 1.2 0 1 0 0-2.4 1.2 1.2 0 0 0 0 2.4zm13.779 0a1.2 1.2 0 1 0 0-2.4 1.2 1.2 0 0 0 0 2.4zM1.93 191.2a1.2 1.2 0 1 0 0-2.4 1.2 1.2 0 0 0 0 2.4zm13.78 0a1.2 1.2 0 1 0 0-2.4 1.2 1.2 0 0 0 0 2.4zm14.98-1.2c0 .66-.54 1.2-1.2 1.2-.66 0-1.2-.54-1.2-1.2 0-.66.54-1.2 1.2-1.2.66 0 1.2.54 1.2 1.2zm12.58 1.2a1.2 1.2 0 1 0 0-2.4 1.2 1.2 0 0 0 0 2.4zm13.78 0a1.2 1.2 0 1 0 0-2.4 1.2 1.2 0 0 0 0 2.4zm13.78 0a1.2 1.2 0 1 0 0-2.4 1.2 1.2 0 0 0 0 2.4zm13.79 0a1.2 1.2 0 1 0 0-2.4 1.2 1.2 0 0 0 0 2.4zm13.78 0a1.2 1.2 0 1 0 0-2.4 1.2 1.2 0 0 0 0 2.4zm13.78 0a1.2 1.2 0 1 0 0-2.399 1.2 1.2 0 0 0 0 2.399zm14.98-1.2c0 .66-.54 1.2-1.2 1.2-.66 0-1.2-.54-1.2-1.2 0-.66.54-1.2 1.2-1.2.66 0 1.2.54 1.2 1.2zm12.58 1.2a1.2 1.2 0 1 0 0-2.4 1.2 1.2 0 0 0 0 2.4zm13.779 0a1.2 1.2 0 1 0 0-2.4 1.2 1.2 0 0 0 0 2.4zm13.79 0a1.2 1.2 0 1 0 0-2.4 1.2 1.2 0 0 0 0 2.4zm13.781 0a1.2 1.2 0 1 0 0-2.4 1.2 1.2 0 0 0 0 2.4zm13.779 0a1.2 1.2 0 1 0 0-2.4 1.2 1.2 0 0 0 0 2.4zm13.781 0a1.2 1.2 0 1 0 0-2.4 1.2 1.2 0 0 0 0 2.4zm13.78 0a1.2 1.2 0 1 0 0-2.399 1.2 1.2 0 0 0 0 2.399zm13.78 0a1.2 1.2 0 1 0 0-2.4 1.2 1.2 0 0 0 0 2.4zm14.98-1.2c0 .66-.54 1.2-1.2 1.2-.66 0-1.2-.54-1.2-1.2 0-.66.54-1.2 1.2-1.2.67 0 1.2.54 1.2 1.2zm12.59 1.2a1.2 1.2 0 1 0 0-2.4 1.2 1.2 0 0 0 0 2.4zm13.779 0a1.2 1.2 0 1 0 0-2.4 1.2 1.2 0 0 0 0 2.4zM1.93 204.68a1.2 1.2 0 1 0 0-2.4 1.2 1.2 0 0 0 0 2.4zm13.78 0a1.2 1.2 0 1 0 0-2.4 1.2 1.2 0 0 0 0 2.4zm14.98-1.2c0 .66-.54 1.2-1.2 1.2-.66 0-1.2-.54-1.2-1.2 0-.66.54-1.2 1.2-1.2.66 0 1.2.54 1.2 1.2zm12.58 1.2a1.2 1.2 0 1 0 0-2.4 1.2 1.2 0 0 0 0 2.4zm13.78 0a1.2 1.2 0 1 0 0-2.4 1.2 1.2 0 0 0 0 2.4zm13.78 0a1.2 1.2 0 1 0 0-2.4 1.2 1.2 0 0 0 0 2.4zm13.79 0a1.2 1.2 0 1 0 0-2.4 1.2 1.2 0 0 0 0 2.4zm13.78 0a1.2 1.2 0 1 0 0-2.4 1.2 1.2 0 0 0 0 2.4zm13.78 0a1.2 1.2 0 1 0 0-2.399 1.2 1.2 0 0 0 0 2.399zm14.98-1.2c0 .66-.54 1.2-1.2 1.2-.66 0-1.2-.54-1.2-1.2 0-.66.54-1.2 1.2-1.2.66 0 1.2.54 1.2 1.2zm12.58 1.2a1.2 1.2 0 1 0 0-2.4 1.2 1.2 0 0 0 0 2.4zm13.779 0a1.2 1.2 0 1 0 0-2.4 1.2 1.2 0 0 0 0 2.4zm13.79 0a1.2 1.2 0 1 0 0-2.4 1.2 1.2 0 0 0 0 2.4zm13.781 0a1.2 1.2 0 1 0 0-2.4 1.2 1.2 0 0 0 0 2.4zm13.779 0a1.2 1.2 0 1 0 0-2.4 1.2 1.2 0 0 0 0 2.4zm13.781 0a1.2 1.2 0 1 0 0-2.4 1.2 1.2 0 0 0 0 2.4zm13.78 0a1.2 1.2 0 1 0 0-2.399 1.2 1.2 0 0 0 0 2.399zm13.78 0a1.2 1.2 0 1 0 0-2.4 1.2 1.2 0 0 0 0 2.4zm14.98-1.2c0 .66-.54 1.2-1.2 1.2-.66 0-1.2-.54-1.2-1.2 0-.66.54-1.2 1.2-1.2.67 0 1.2.54 1.2 1.2zm12.59 1.2a1.2 1.2 0 1 0 0-2.4 1.2 1.2 0 0 0 0 2.4zm13.779 0a1.2 1.2 0 1 0 0-2.4 1.2 1.2 0 0 0 0 2.4zM1.93 218.16a1.2 1.2 0 1 0 0-2.4 1.2 1.2 0 0 0 0 2.4zm13.78 0a1.2 1.2 0 1 0 0-2.4 1.2 1.2 0 0 0 0 2.4zm14.98-1.2c0 .66-.54 1.2-1.2 1.2-.66 0-1.2-.54-1.2-1.2 0-.66.54-1.2 1.2-1.2.66.01 1.2.54 1.2 1.2zm12.58 1.2a1.2 1.2 0 1 0 0-2.4 1.2 1.2 0 0 0 0 2.4zm13.78 0a1.2 1.2 0 1 0 0-2.4 1.2 1.2 0 0 0 0 2.4zm13.78 0a1.2 1.2 0 1 0 0-2.4 1.2 1.2 0 0 0 0 2.4zm13.79 0a1.2 1.2 0 1 0 0-2.4 1.2 1.2 0 0 0 0 2.4zm13.78 0a1.2 1.2 0 1 0 0-2.4 1.2 1.2 0 0 0 0 2.4zm13.78 0a1.2 1.2 0 1 0 0-2.399 1.2 1.2 0 0 0 0 2.399zm14.98-1.2c0 .66-.54 1.2-1.2 1.2-.66 0-1.2-.54-1.2-1.2 0-.66.54-1.2 1.2-1.2.66.01 1.2.54 1.2 1.2zm12.58 1.2a1.2 1.2 0 1 0 0-2.4 1.2 1.2 0 0 0 0 2.4zm13.779 0a1.2 1.2 0 1 0 0-2.4 1.2 1.2 0 0 0 0 2.4zm13.79 0a1.2 1.2 0 1 0 0-2.4 1.2 1.2 0 0 0 0 2.4zm13.781 0a1.2 1.2 0 1 0 0-2.4 1.2 1.2 0 0 0 0 2.4zm13.779 0a1.2 1.2 0 1 0 0-2.4 1.2 1.2 0 0 0 0 2.4zm13.781 0a1.2 1.2 0 1 0 0-2.4 1.2 1.2 0 0 0 0 2.4zm13.78 0a1.2 1.2 0 1 0 0-2.399 1.2 1.2 0 0 0 0 2.399zm13.78 0a1.2 1.2 0 1 0 0-2.4 1.2 1.2 0 0 0 0 2.4zm14.98-1.2c0 .66-.54 1.2-1.2 1.2-.66 0-1.2-.54-1.2-1.2 0-.66.54-1.2 1.2-1.2.67.01 1.2.54 1.2 1.2zm12.59 1.2a1.2 1.2 0 1 0 0-2.4 1.2 1.2 0 0 0 0 2.4zm13.779 0a1.2 1.2 0 1 0 0-2.4 1.2 1.2 0 0 0 0 2.4zM1.93 231.65a1.2 1.2 0 1 0 0-2.4 1.2 1.2 0 0 0 0 2.4zm13.78 0a1.2 1.2 0 1 0 0-2.4 1.2 1.2 0 0 0 0 2.4zm14.98-1.2c0 .66-.54 1.2-1.2 1.2-.66 0-1.2-.54-1.2-1.2 0-.66.54-1.2 1.2-1.2.66 0 1.2.53 1.2 1.2zm12.58 1.2a1.2 1.2 0 1 0 0-2.4 1.2 1.2 0 0 0 0 2.4zm13.78 0a1.2 1.2 0 1 0 0-2.4 1.2 1.2 0 0 0 0 2.4zm13.78 0a1.2 1.2 0 1 0 0-2.4 1.2 1.2 0 0 0 0 2.4zm13.79 0a1.2 1.2 0 1 0 0-2.4 1.2 1.2 0 0 0 0 2.4zm13.78 0a1.2 1.2 0 1 0 0-2.4 1.2 1.2 0 0 0 0 2.4zm13.78 0a1.2 1.2 0 1 0 0-2.399 1.2 1.2 0 0 0 0 2.399zm14.98-1.2c0 .66-.54 1.2-1.2 1.2-.66 0-1.2-.54-1.2-1.2 0-.66.54-1.2 1.2-1.2.66 0 1.2.53 1.2 1.2zm12.58 1.2a1.2 1.2 0 1 0 0-2.4 1.2 1.2 0 0 0 0 2.4zm13.779 0a1.2 1.2 0 1 0 0-2.4 1.2 1.2 0 0 0 0 2.4zm13.79 0a1.2 1.2 0 1 0 0-2.4 1.2 1.2 0 0 0 0 2.4zm13.781 0a1.2 1.2 0 1 0 0-2.4 1.2 1.2 0 0 0 0 2.4zm13.779 0a1.2 1.2 0 1 0 0-2.4 1.2 1.2 0 0 0 0 2.4zm13.781 0a1.2 1.2 0 1 0 0-2.4 1.2 1.2 0 0 0 0 2.4zm13.78 0a1.2 1.2 0 1 0 0-2.399 1.2 1.2 0 0 0 0 2.399zm13.78 0a1.2 1.2 0 1 0 0-2.4 1.2 1.2 0 0 0 0 2.4zm14.98-1.2c0 .66-.54 1.2-1.2 1.2-.66 0-1.2-.54-1.2-1.2 0-.66.54-1.2 1.2-1.2.67 0 1.2.53 1.2 1.2zm12.59 1.2a1.2 1.2 0 1 0 0-2.4 1.2 1.2 0 0 0 0 2.4zm13.779 0a1.2 1.2 0 1 0 0-2.4 1.2 1.2 0 0 0 0 2.4zM1.93 245.13a1.2 1.2 0 1 0 0-2.4 1.2 1.2 0 0 0 0 2.4zm13.78 0a1.2 1.2 0 1 0 0-2.4 1.2 1.2 0 0 0 0 2.4zm14.98-1.2c0 .66-.54 1.2-1.2 1.2-.66 0-1.2-.54-1.2-1.2 0-.66.54-1.2 1.2-1.2.66 0 1.2.54 1.2 1.2zm12.58 1.2a1.2 1.2 0 1 0 0-2.4 1.2 1.2 0 0 0 0 2.4zm13.78 0a1.2 1.2 0 1 0 0-2.4 1.2 1.2 0 0 0 0 2.4zm13.78 0a1.2 1.2 0 1 0 0-2.4 1.2 1.2 0 0 0 0 2.4zm13.79 0a1.2 1.2 0 1 0 0-2.4 1.2 1.2 0 0 0 0 2.4zm13.78 0a1.2 1.2 0 1 0 0-2.4 1.2 1.2 0 0 0 0 2.4zm13.78 0a1.2 1.2 0 1 0 0-2.399 1.2 1.2 0 0 0 0 2.399zm14.98-1.2c0 .66-.54 1.2-1.2 1.2-.66 0-1.2-.54-1.2-1.2 0-.66.54-1.2 1.2-1.2.66 0 1.2.54 1.2 1.2zm12.58 1.2a1.2 1.2 0 1 0 0-2.4 1.2 1.2 0 0 0 0 2.4zm13.779 0a1.2 1.2 0 1 0 0-2.4 1.2 1.2 0 0 0 0 2.4zm13.79 0a1.2 1.2 0 1 0 0-2.4 1.2 1.2 0 0 0 0 2.4zm13.781 0a1.2 1.2 0 1 0 0-2.4 1.2 1.2 0 0 0 0 2.4zm13.779 0a1.2 1.2 0 1 0 0-2.4 1.2 1.2 0 0 0 0 2.4zm13.781 0a1.2 1.2 0 1 0 0-2.4 1.2 1.2 0 0 0 0 2.4zm13.78 0a1.2 1.2 0 1 0 0-2.399 1.2 1.2 0 0 0 0 2.399zm13.78 0a1.2 1.2 0 1 0 0-2.4 1.2 1.2 0 0 0 0 2.4zm14.98-1.2c0 .66-.54 1.2-1.2 1.2-.66 0-1.2-.54-1.2-1.2 0-.66.54-1.2 1.2-1.2.67 0 1.2.54 1.2 1.2zm12.59 1.2a1.2 1.2 0 1 0 0-2.4 1.2 1.2 0 0 0 0 2.4zm13.779 0a1.2 1.2 0 1 0 0-2.4 1.2 1.2 0 0 0 0 2.4zM1.93 258.61a1.2 1.2 0 1 0 0-2.4 1.2 1.2 0 0 0 0 2.4zm13.78 0a1.2 1.2 0 1 0 0-2.4 1.2 1.2 0 0 0 0 2.4zm14.98-1.2c0 .66-.54 1.2-1.2 1.2-.66 0-1.2-.54-1.2-1.2 0-.66.54-1.2 1.2-1.2.66 0 1.2.54 1.2 1.2zm12.58 1.2a1.2 1.2 0 1 0 0-2.4 1.2 1.2 0 0 0 0 2.4zm13.78 0a1.2 1.2 0 1 0 0-2.4 1.2 1.2 0 0 0 0 2.4zm13.78 0a1.2 1.2 0 1 0 0-2.4 1.2 1.2 0 0 0 0 2.4zm13.79 0a1.2 1.2 0 1 0 0-2.4 1.2 1.2 0 0 0 0 2.4zm13.78 0a1.2 1.2 0 1 0 0-2.4 1.2 1.2 0 0 0 0 2.4zm13.78 0a1.2 1.2 0 1 0 0-2.399 1.2 1.2 0 0 0 0 2.399zm14.98-1.2c0 .66-.54 1.2-1.2 1.2-.66 0-1.2-.54-1.2-1.2 0-.66.54-1.2 1.2-1.2.66 0 1.2.54 1.2 1.2zm12.58 1.2a1.2 1.2 0 1 0 0-2.4 1.2 1.2 0 0 0 0 2.4zm13.779 0a1.2 1.2 0 1 0 0-2.4 1.2 1.2 0 0 0 0 2.4zm13.79 0a1.2 1.2 0 1 0 0-2.4 1.2 1.2 0 0 0 0 2.4zm13.781 0a1.2 1.2 0 1 0 0-2.4 1.2 1.2 0 0 0 0 2.4zm13.779 0a1.2 1.2 0 1 0 0-2.4 1.2 1.2 0 0 0 0 2.4zm13.781 0a1.2 1.2 0 1 0 0-2.4 1.2 1.2 0 0 0 0 2.4zm13.78 0a1.2 1.2 0 1 0 0-2.399 1.2 1.2 0 0 0 0 2.399zm13.78 0a1.2 1.2 0 1 0 0-2.4 1.2 1.2 0 0 0 0 2.4zm14.98-1.2c0 .66-.54 1.2-1.2 1.2-.66 0-1.2-.54-1.2-1.2 0-.66.54-1.2 1.2-1.2.67 0 1.2.54 1.2 1.2zm12.59 1.2a1.2 1.2 0 1 0 0-2.4 1.2 1.2 0 0 0 0 2.4zm13.779 0a1.2 1.2 0 1 0 0-2.4 1.2 1.2 0 0 0 0 2.4zM1.93 272.09a1.2 1.2 0 1 0 0-2.4 1.2 1.2 0 0 0 0 2.4zm13.78 0a1.2 1.2 0 1 0 0-2.4 1.2 1.2 0 0 0 0 2.4zm14.98-1.2c0 .66-.54 1.2-1.2 1.2-.66 0-1.2-.54-1.2-1.2 0-.66.54-1.2 1.2-1.2.66 0 1.2.54 1.2 1.2zm12.58 1.2a1.2 1.2 0 1 0 0-2.4 1.2 1.2 0 0 0 0 2.4zm13.78 0a1.2 1.2 0 1 0 0-2.4 1.2 1.2 0 0 0 0 2.4zm13.78 0a1.2 1.2 0 1 0 0-2.4 1.2 1.2 0 0 0 0 2.4zm13.79 0a1.2 1.2 0 1 0 0-2.4 1.2 1.2 0 0 0 0 2.4zm13.78 0a1.2 1.2 0 1 0 0-2.4 1.2 1.2 0 0 0 0 2.4zm13.78 0a1.2 1.2 0 1 0 0-2.399 1.2 1.2 0 0 0 0 2.399zm14.98-1.2c0 .66-.54 1.2-1.2 1.2-.66 0-1.2-.54-1.2-1.2 0-.66.54-1.2 1.2-1.2.66 0 1.2.54 1.2 1.2zm12.58 1.2a1.2 1.2 0 1 0 0-2.4 1.2 1.2 0 0 0 0 2.4zm13.779 0a1.2 1.2 0 1 0 0-2.4 1.2 1.2 0 0 0 0 2.4zm13.79 0a1.2 1.2 0 1 0 0-2.4 1.2 1.2 0 0 0 0 2.4zm13.781 0a1.2 1.2 0 1 0 0-2.4 1.2 1.2 0 0 0 0 2.4zm13.779 0a1.2 1.2 0 1 0 0-2.4 1.2 1.2 0 0 0 0 2.4zm13.781 0a1.2 1.2 0 1 0 0-2.4 1.2 1.2 0 0 0 0 2.4zm13.78 0a1.2 1.2 0 1 0 0-2.399 1.2 1.2 0 0 0 0 2.399zm13.78 0a1.2 1.2 0 1 0 0-2.4 1.2 1.2 0 0 0 0 2.4zm14.98-1.2c0 .66-.54 1.2-1.2 1.2-.66 0-1.2-.54-1.2-1.2 0-.66.54-1.2 1.2-1.2.67 0 1.2.54 1.2 1.2zm12.59 1.2a1.2 1.2 0 1 0 0-2.4 1.2 1.2 0 0 0 0 2.4zm13.779 0a1.2 1.2 0 1 0 0-2.4 1.2 1.2 0 0 0 0 2.4zM3.13 284.37c0 .66-.54 1.2-1.2 1.2-.66 0-1.2-.54-1.2-1.2 0-.66.54-1.2 1.2-1.2.66.01 1.2.54 1.2 1.2zm13.78 0c0 .66-.54 1.2-1.2 1.2-.66 0-1.2-.54-1.2-1.2 0-.66.54-1.2 1.2-1.2.66.01 1.2.54 1.2 1.2zm13.78 0c0 .66-.54 1.2-1.2 1.2-.66 0-1.2-.54-1.2-1.2 0-.66.54-1.2 1.2-1.2.66.01 1.2.54 1.2 1.2zm13.78 0c0 .66-.54 1.2-1.2 1.2-.66 0-1.2-.54-1.2-1.2 0-.66.54-1.2 1.2-1.2.66.01 1.2.54 1.2 1.2zm13.78 0c0 .66-.54 1.2-1.2 1.2-.66 0-1.2-.54-1.2-1.2 0-.66.54-1.2 1.2-1.2.66.01 1.2.54 1.2 1.2zm13.78 0c0 .66-.54 1.2-1.2 1.2-.66 0-1.2-.54-1.2-1.2 0-.66.54-1.2 1.2-1.2.67.01 1.2.54 1.2 1.2zm13.78 0c0 .66-.54 1.2-1.2 1.2-.66 0-1.2-.54-1.2-1.2 0-.66.54-1.2 1.2-1.2.67.01 1.2.54 1.2 1.2zm13.79 0c0 .66-.54 1.2-1.2 1.2-.66 0-1.2-.54-1.2-1.2 0-.66.54-1.2 1.2-1.2.66.01 1.2.54 1.2 1.2zm13.779 0c0 .66-.539 1.2-1.199 1.2s-1.201-.54-1.201-1.2c0-.66.541-1.2 1.201-1.2.66.01 1.199.54 1.199 1.2zm13.781 0c0 .66-.54 1.2-1.2 1.2-.66 0-1.2-.54-1.2-1.2 0-.66.54-1.2 1.2-1.2.66.01 1.2.54 1.2 1.2zm13.78 0c0 .66-.54 1.2-1.2 1.2-.66 0-1.2-.54-1.2-1.2 0-.66.54-1.2 1.2-1.2.66.01 1.2.54 1.2 1.2zm13.779 0c0 .66-.54 1.2-1.2 1.2-.66 0-1.2-.54-1.2-1.2 0-.66.54-1.2 1.2-1.2.67.01 1.2.54 1.2 1.2zm13.781 0c0 .66-.54 1.2-1.2 1.2-.66 0-1.2-.54-1.2-1.2 0-.66.54-1.2 1.2-1.2.67.01 1.2.54 1.2 1.2zm13.79 0c0 .66-.54 1.2-1.2 1.2-.66 0-1.2-.54-1.2-1.2 0-.66.54-1.2 1.2-1.2.66.01 1.2.54 1.2 1.2zm13.779 0c0 .66-.54 1.2-1.2 1.2-.66 0-1.2-.54-1.2-1.2 0-.66.54-1.2 1.2-1.2.66.01 1.2.54 1.2 1.2zm13.781 0c0 .66-.54 1.2-1.2 1.2-.66 0-1.2-.54-1.2-1.2 0-.66.54-1.2 1.2-1.2.66.01 1.2.54 1.2 1.2zm13.779 0c0 .66-.539 1.2-1.199 1.2s-1.201-.54-1.201-1.2c0-.66.541-1.2 1.201-1.2.66.01 1.199.54 1.199 1.2zm13.781 0c0 .66-.54 1.2-1.2 1.2-.66 0-1.2-.54-1.2-1.2 0-.66.54-1.2 1.2-1.2.67.01 1.2.54 1.2 1.2zm13.78 0c0 .66-.54 1.2-1.2 1.2-.66 0-1.2-.54-1.2-1.2 0-.66.54-1.2 1.2-1.2.67.01 1.2.54 1.2 1.2zm13.79 0c0 .66-.54 1.2-1.2 1.2-.66 0-1.2-.54-1.2-1.2 0-.66.54-1.2 1.2-1.2.66.01 1.2.54 1.2 1.2zm13.779 0c0 .66-.54 1.2-1.2 1.2-.66 0-1.2-.54-1.2-1.2 0-.66.54-1.2 1.2-1.2.66.01 1.2.54 1.2 1.2zM1.93 299.06a1.2 1.2 0 1 0 0-2.4 1.2 1.2 0 0 0 0 2.4zm13.78 0a1.2 1.2 0 1 0 0-2.4 1.2 1.2 0 0 0 0 2.4zm14.98-1.2c0 .66-.54 1.2-1.2 1.2-.66 0-1.2-.54-1.2-1.2 0-.66.54-1.2 1.2-1.2.66 0 1.2.53 1.2 1.2zm12.58 1.2a1.2 1.2 0 1 0 0-2.4 1.2 1.2 0 0 0 0 2.4zm13.78 0a1.2 1.2 0 1 0 0-2.4 1.2 1.2 0 0 0 0 2.4zm13.78 0a1.2 1.2 0 1 0 0-2.4 1.2 1.2 0 0 0 0 2.4zm13.79 0a1.2 1.2 0 1 0 0-2.4 1.2 1.2 0 0 0 0 2.4zm13.78 0a1.2 1.2 0 1 0 0-2.4 1.2 1.2 0 0 0 0 2.4zm13.78 0a1.2 1.2 0 1 0 0-2.399 1.2 1.2 0 0 0 0 2.399zm14.98-1.2c0 .66-.54 1.2-1.2 1.2-.66 0-1.2-.54-1.2-1.2 0-.66.54-1.2 1.2-1.2.66 0 1.2.53 1.2 1.2zm12.58 1.2a1.2 1.2 0 1 0 0-2.4 1.2 1.2 0 0 0 0 2.4zm13.779 0a1.2 1.2 0 1 0 0-2.4 1.2 1.2 0 0 0 0 2.4zm13.79 0a1.2 1.2 0 1 0 0-2.4 1.2 1.2 0 0 0 0 2.4zm13.781 0a1.2 1.2 0 1 0 0-2.4 1.2 1.2 0 0 0 0 2.4zm13.779 0a1.2 1.2 0 1 0 0-2.4 1.2 1.2 0 0 0 0 2.4zm13.781 0a1.2 1.2 0 1 0 0-2.4 1.2 1.2 0 0 0 0 2.4zm13.78 0a1.2 1.2 0 1 0 0-2.399 1.2 1.2 0 0 0 0 2.399zm13.78 0a1.2 1.2 0 1 0 0-2.4 1.2 1.2 0 0 0 0 2.4zm14.98-1.2c0 .66-.54 1.2-1.2 1.2-.66 0-1.2-.54-1.2-1.2 0-.66.54-1.2 1.2-1.2.67 0 1.2.53 1.2 1.2zm12.59 1.2a1.2 1.2 0 1 0 0-2.4 1.2 1.2 0 0 0 0 2.4zm13.779 0a1.2 1.2 0 1 0 0-2.4 1.2 1.2 0 0 0 0 2.4z"/></svg>