<svg xmlns="http://www.w3.org/2000/svg" id="Layer_2" viewBox="0 0 342.63 275.1"><defs><style>.cls-1{fill:#0098ff}</style></defs><g id="Layer_1-2"><path d="M325.82 50.97H258s-.01-.02-.02-.03L208.43 4.71C205.18 1.68 200.93 0 196.47 0c-4.86 0-9.53 2.03-12.83 5.56l-.73.79c-5.92 6.34-6.22 15.95-1.11 22.62l-20.52 22H31.44c-9.27 0-16.79 7.51-16.79 16.79v140.36l-4.77 5.11c-13.84 14.84-13.04 38.16 1.8 52 6.75 6.31 15.57 9.75 24.84 9.82 0 0 0 .02-.01.02h.09c.06 0 .11.03.16.03s.1-.03.15-.03h288.85c9.31 0 16.85-7.54 16.85-16.85V67.77c0-9.28-7.52-16.8-16.8-16.8zM21.85 68.25c0-5.56 4.51-10.07 10.07-10.07h122.63L21.85 200.4V68.25zm-6.58 150L190.48 30.48l1.58-1.69-3.26-3.05c-4.09-3.8-4.31-10.28-.5-14.36l.73-.79c1.99-2.13 4.71-3.21 7.44-3.21 2.49 0 4.98.9 6.93 2.72l49.55 46.23c4.09 3.82 4.31 10.28.5 14.38l-.73.77c-1.99 2.15-4.71 3.23-7.44 3.23-2.49 0-4.98-.9-6.93-2.72l-3.26-3.05-1.58 1.7L58.3 258.41c-5.77 6.18-13.64 9.31-21.53 9.31-7.2 0-14.41-2.61-20.06-7.87-11.83-11.05-12.48-29.77-1.44-41.61zm320.15 39.49c0 5.59-4.53 10.11-10.11 10.11H57.42c2.11-1.48 4.5-2.52 6.27-4.41L235.62 79.18c2.85 1.89 6.19 2.89 9.66 2.89 4.85 0 9.53-2.02 12.83-5.56l.73-.79c4.55-4.87 5.55-11.62 3.55-17.54h63c5.54 0 10.03 4.49 10.03 10.03v189.53z" class="cls-1"/><rect width="103.77" height="7.2" x="215.16" y="157.02" class="cls-1" rx="3.6" ry="3.6"/><rect width="103.77" height="7.2" x="215.16" y="185.38" class="cls-1" rx="3.6" ry="3.6"/><rect width="103.77" height="7.2" x="215.16" y="212.7" class="cls-1" rx="3.6" ry="3.6"/><path fill="#0098ff" d="M30.29 266.98c-.41-.09-.81-.17-1.21-.28.4.11.81.19 1.21.28zm-5.36-1.76c-.37-.16-.74-.31-1.1-.48.36.18.73.32 1.1.48zm2.65 1.01c-.39-.13-.78-.24-1.17-.39.39.14.78.26 1.17.39zm-6.25-2.87c.33.2.66.37 1 .56-.33-.19-.67-.36-1-.56zm13.21 4.26c.42.03.84.04 1.27.06-.42-.01-.85-.03-1.27-.06zm140.2-145.37h-59.78l-94.3 101.04c-4 4.28-6.08 9.9-5.88 15.81.2 5.91 2.68 11.37 6.96 15.36 4.07 3.8 9.41 5.89 15.03 5.89 6.12 0 12-2.54 16.14-6.97l121.83-131.13zM16.71 259.85c-5.92-5.52-9.04-12.96-9.3-20.5.26 7.54 3.38 14.98 9.3 20.5s.04.03.06.05c-.02-.02-.04-.03-.06-.05zm15.08 7.44c.41.07.83.12 1.25.17-.42-.05-.83-.1-1.25-.17zm23.52-6.14c-.53.43-1.05.86-1.61 1.25.55-.39 1.08-.82 1.61-1.25zm-15.16 6.37c.52-.06 1.03-.15 1.55-.23-.52.09-1.03.17-1.55.23zm-20.39-5.22c-.27-.19-.55-.36-.81-.56.26.2.54.37.81.56zm27.59 3.45c-.51.19-1.01.39-1.53.56.52-.16 1.02-.36 1.53-.56zm10.95-7.33c-.71.76-1.45 1.47-2.21 2.13.77-.67 1.51-1.37 2.21-2.13l136.88-146.71L58.3 258.41zm-13.75 8.25c-.51.14-1.02.28-1.54.39.52-.11 1.03-.25 1.54-.39zm5.52-2.12c-.5.25-1 .51-1.52.74.51-.22 1.02-.48 1.52-.74zm-11.25 3.08c-.52.04-1.03.07-1.55.08.52 0 1.03-.04 1.55-.08zm13.89-4.59c-.5.32-1 .66-1.52.95.52-.29 1.02-.62 1.52-.95z" opacity=".6"/><path d="M314.91 75.23h-38.97a4.02 4.02 0 0 0-4.02 4.02v38.97c0 2.23 1.8 4.03 4.02 4.03h38.97c2.22 0 4.02-1.8 4.02-4.03V79.25c0-2.21-1.8-4.02-4.02-4.02zm-3.17 38.66c0 .64-.52 1.16-1.16 1.16h-30.31c-.64 0-1.16-.52-1.16-1.16v-30.3c0-.66.52-1.16 1.16-1.16h30.31c.64 0 1.16.51 1.16 1.16v30.3z" class="cls-1"/></g></svg>