<svg xmlns="http://www.w3.org/2000/svg" viewBox="0 0 1280 637.23"><defs><style>.cls-2{fill:#fff}</style></defs><g id="Layer_2" data-name="Layer 2"><g id="Layer_1-2" data-name="Layer 1"><g id="Group_4147" data-name="Group 4147" opacity=".1"><path id="Path_2597" d="M520.57 472.17c-4-4.8-10.48-4.95-15.6-1.43C401.1 542.33 256.9 524 173.44 424.61S97 180 185.46 90.11c4.36-4.43 2.94-13.65-1.09-18.45L127.14 3.48c-4.59-5.47-13.34-4-18.42.94C-26.25 135.15-37.6 350.47 86.15 497.89s337.78 173.56 489.92 63.28c5.73-4.16 6.32-15.36 1.73-20.82z" class="cls-2" data-name="Path 2597"/><path id="Path_2598" d="M479.14 199.13c120.16-29.26 245.08 28 295.74 139.64 2.63 5.8 8.54 9.14 14.6 7.05l87.11-30c7-2.4 13.68-9.06 10.81-15.79-72.76-170.8-262.16-262.15-443-213.69-7.13 1.9-13.18 8.87-10.8 15.79l29.74 86.35c2.03 6.02 9.57 12.16 15.8 10.65z" class="cls-2" data-name="Path 2598"/><path id="Path_2599" d="M1154.35 584.19c-37.59-117.88 10.83-246.57 118.73-304.93 5.6-3 8.52-9.16 6-15.07l-36-84.85c-2.89-6.81-10-13-16.52-9.68-165.4 84.54-243.35 280-182.34 457.12 2.4 7 9.77 12.54 16.51 9.68l84.12-35.71c5.85-2.49 11.45-10.44 9.5-16.56z" class="cls-2" data-name="Path 2599"/></g></g></g></svg>