<svg xmlns="http://www.w3.org/2000/svg" id="Layer_2" viewBox="0 0 409.98 117.49"><defs><style>.cls-1{fill:#0098ff}</style></defs><g id="Layer_1-2"><path d="M139.15 21.77h-28.96v-.01L89.01 2.01A7.441 7.441 0 0 0 83.9 0c-2.07 0-4.07.87-5.48 2.37l-.31.34a7.489 7.489 0 0 0-.47 9.66l-8.77 9.4H13.42a7.17 7.17 0 0 0-7.17 7.17v59.94l-2.04 2.18c-5.91 6.34-5.57 16.3.77 22.21 2.88 2.7 6.65 4.17 10.61 4.19h.04s.05.01.07.01c.02 0 .04-.01.06-.01h123.36c3.98 0 7.2-3.22 7.2-7.2V28.94a7.18 7.18 0 0 0-7.18-7.18zM9.33 29.15a4.3 4.3 0 0 1 4.3-4.3H66L9.33 85.58V29.15zM6.52 93.21l74.83-80.19.68-.72-1.39-1.3c-1.75-1.62-1.84-4.39-.21-6.13l.31-.34c.85-.91 2.01-1.37 3.18-1.37 1.06 0 2.13.39 2.96 1.16l21.16 19.74c1.75 1.63 1.84 4.39.21 6.14l-.31.33c-.85.92-2.01 1.38-3.18 1.38-1.06 0-2.13-.39-2.96-1.16l-1.39-1.3-.68.73-74.83 80.18a12.543 12.543 0 0 1-9.19 3.98c-3.08 0-6.16-1.11-8.57-3.36-5.05-4.72-5.33-12.71-.62-17.77zm136.72 16.87c0 2.39-1.93 4.32-4.32 4.32H24.52c.9-.63 1.92-1.08 2.68-1.88l73.42-78.7c1.22.81 2.64 1.23 4.13 1.23 2.07 0 4.07-.86 5.48-2.37l.31-.34c1.94-2.08 2.37-4.96 1.52-7.49h26.91c2.36 0 4.28 1.92 4.28 4.28v80.94z" class="cls-1"/><rect width="44.32" height="3.07" x="91.89" y="67.06" class="cls-1" rx="1.54" ry="1.54"/><rect width="44.32" height="3.07" x="91.89" y="79.17" class="cls-1" rx="1.54" ry="1.54"/><rect width="44.32" height="3.07" x="91.89" y="90.84" class="cls-1" rx="1.54" ry="1.54"/><path fill="#0098ff" d="M12.94 114.02c-.17-.04-.35-.07-.52-.12.17.05.35.08.52.12zm-2.29-.75c-.16-.07-.32-.13-.47-.21.15.08.31.14.47.21zm1.13.43c-.17-.05-.33-.1-.5-.17.16.06.33.11.5.17zm-2.67-1.22c.14.09.28.16.43.24-.14-.08-.29-.15-.43-.24zm5.64 1.82c.18.01.36.02.54.02-.18 0-.36-.01-.54-.02zm59.87-62.09H49.09L8.82 95.36a9.33 9.33 0 0 0-2.51 6.75c.09 2.52 1.14 4.85 2.97 6.56a9.393 9.393 0 0 0 6.42 2.52c2.61 0 5.13-1.09 6.89-2.98l52.03-56zM7.14 110.97a12.502 12.502 0 0 1-3.97-8.75c.11 3.22 1.44 6.4 3.97 8.75s.02.01.03.02c0 0-.02-.01-.03-.02zm6.44 3.18zm10.05-2.62c-.23.18-.45.37-.69.53.24-.17.46-.35.69-.53zm-6.47 2.72zm-8.71-2.23c-.11-.08-.23-.15-.34-.24.11.09.23.16.34.24zm11.78 1.47c-.22.08-.43.17-.65.24.22-.07.44-.16.65-.24zm4.68-3.13c-.3.32-.62.63-.95.91.33-.28.64-.59.95-.91l58.46-62.65-58.46 62.65zm-5.87 3.52c-.22.06-.44.12-.66.17.22-.05.44-.11.66-.17zm2.36-.9c-.22.11-.43.22-.65.31.22-.1.43-.21.65-.31zm-4.81 1.32c-.22.01-.44.03-.66.03.22 0 .44-.02.66-.03zm5.93-1.96c-.22.14-.43.28-.65.4.22-.12.44-.27.65-.4z" opacity=".6"/><path d="M134.49 32.13h-16.64c-.95 0-1.72.77-1.72 1.72v16.64c0 .95.77 1.72 1.72 1.72h16.64c.95 0 1.72-.77 1.72-1.72V33.85c0-.95-.77-1.72-1.72-1.72zm-1.36 16.51a.5.5 0 0 1-.49.5H119.7c-.27 0-.49-.22-.49-.5V35.7c0-.28.22-.5.49-.5h12.94c.27 0 .49.22.49.5v12.94zm86.68 10.29c8.77 0 13.46 6.48 13.46 14.49 0 .8-.19 2.45-.19 2.45h-22.79c.37 6.6 5.19 10.33 10.75 10.33s9.14-3.61 9.14-3.61l2.59 4.22s-4.63 4.52-12.04 4.52c-9.88 0-16.61-7.03-16.61-16.2 0-9.84 6.79-16.2 15.69-16.2zm7.29 12.6c-.19-5.14-3.46-7.89-7.35-7.89-4.57 0-8.28 2.75-9.2 7.89h16.55zm12.34 10.44s3.7 4.59 9.45 4.59c2.9 0 5.44-1.28 5.44-3.97 0-5.56-17.05-4.95-17.05-14.92 0-5.93 5.25-8.68 11.61-8.68 3.77 0 10.25 1.28 10.25 5.99v2.93h-5.37v-1.53c0-1.84-2.78-2.63-4.69-2.63-3.52 0-5.81 1.22-5.81 3.67 0 5.87 17.05 4.59 17.05 14.92 0 5.5-4.94 9.05-11.49 9.05-8.34 0-12.48-5.44-12.48-5.44l3.09-3.98zm27.42-17.49h-4.08v-4.77h4.2v-8.5h5.87v8.5h7.47v4.77h-7.47v14.19c0 6.18 4.32 6.97 6.61 6.97.86 0 1.42-.12 1.42-.12v5.26s-.8.12-2.1.12c-3.95 0-11.92-1.22-11.92-11.56V64.48zm36.32-15.46c5.21 0 14.53 2.32 14.53 8.88v4h-5.04v-2.32c0-3.42-5.48-5.16-9.37-5.16-7.78 0-13.81 6.21-13.81 15.44s6.09 16.08 13.98 16.08 12.22-5.57 12.22-5.57l2.96 4.18s-5.48 6.85-15.24 6.85c-11.57 0-19.63-9.46-19.63-21.53s8.33-20.84 19.41-20.84zm37.36 22.37h1.36v-.31c0-5.44-2.04-7.4-6.92-7.4-1.48 0-5.13.37-5.13 2.38v1.77h-5.62v-3.06c0-5.08 7.78-5.81 10.81-5.81 10.13 0 12.85 5.26 12.85 12.11v13.15c0 .92.49 1.34 1.36 1.34h2.53v5.08h-5.62c-2.78 0-3.89-1.34-3.89-3.55 0-1.04.12-1.84.12-1.84h-.12s-2.47 6.12-9.94 6.12c-5.37 0-10.62-3.24-10.62-9.42 0-9.97 13.59-10.58 18.84-10.58zm-6.92 15.23c5.06 0 8.34-5.26 8.34-9.85v-1.04h-1.54c-4.51 0-12.66.25-12.66 5.93 0 2.51 1.91 4.95 5.87 4.95zm23.1-20.47c0-.92-.49-1.34-1.36-1.34h-2.53v-5.08h5.68c2.72 0 4.01 1.1 4.01 3.61v1.96c0 1.22-.12 2.14-.12 2.14h.12c1.48-4.52 5.06-8.07 9.88-8.07.8 0 1.6.12 1.6.12v5.87s-.8-.18-1.79-.18c-3.83 0-7.35 2.69-8.77 7.28-.56 1.77-.74 3.67-.74 5.56v12.66h-5.99V66.16zM389.83 59c7.23 0 9.63 4.77 9.63 4.77h.12s-.12-.92-.12-2.08v-7.77c0-.92-.49-1.34-1.36-1.34h-2.22V47.5h5.62c2.78 0 3.95 1.16 3.95 3.91v32.84c0 .92.49 1.34 1.36 1.34h3.17v5.08h-6.38c-2.72 0-3.83-1.22-3.83-3.3 0-.92.06-1.59.06-1.59h-.12s-2.59 5.63-10.25 5.63c-8.46 0-13.77-6.6-13.77-16.2s5.87-16.2 14.14-16.2zm9.82 16.14c0-5.5-2.9-11.01-8.89-11.01-4.88 0-8.95 4.04-8.95 11.07s3.64 11.07 8.83 11.07c4.63 0 9.02-3.24 9.02-11.13z" class="cls-1"/><path d="M179.42 49.02v5.26h12.45v36.33h5.99V54.28h12.45v-5.26h-30.89z" class="cls-1"/></g></svg>