<svg xmlns="http://www.w3.org/2000/svg" viewBox="0 0 296 634"><path fill="#126bb6" d="M249.44 0H44.57C14.63 0 0 18.63 0 46.57v546.19c0 25.28 19.29 41.25 41.24 41.25h214.85c22.62 0 39.91-18.83 39.91-41.25V42.58C296 19.96 281.37 0 249.44 0zM135 21.38h28c1.66 0 3 1.34 3 3s-1.34 3-3 3h-28c-1.66 0-3-1.34-3-3s1.34-3 3-3zm-59.94-5c4.42 0 8 3.58 8 8s-3.58 8-8 8-8-3.58-8-8 3.58-8 8-8zm205.35 569.78c0 17.58-14.25 31.84-31.84 31.84H47.55c-17.58 0-31.84-14.25-31.84-31.84V80.22c0-17.58 14.25-31.84 31.84-31.84h201.02c17.58 0 31.84 14.25 31.84 31.84v505.94z"/></svg>