<svg xmlns="http://www.w3.org/2000/svg" width="720" height="510" fill="none"><path fill="#EEF7FC" fill-rule="evenodd" d="M257.5 1.336c71.906-10.822 111 47 207.324 69.603 96.324 22.603 136.236 56.014 160.982 118.836 26.221 66.569 5.578 142.382-34.45 202.391-38.506 57.727-103.209 92.791-173.179 108.882-68.141 15.67-139.749 9.693-200.951-22.847-62.027-32.978-107.489-87.544-128.123-152.113C67.75 259.274 70.58 187.135 104.408 125.18 139.785 60.388 181.55 12.766 257.5 1.336z" clip-rule="evenodd"/><g clip-path="url(#a)"><path fill="#fff" stroke="#B8D0E0" stroke-width="3" d="M636.017 415.414H118.984a9.198 9.198 0 0 1-9.201-9.2v-277.54h535.446v277.54a9.2 9.2 0 0 1-9.212 9.2zM119.575 90.257h515.859a9.804 9.804 0 0 1 9.795 9.796v28.432H109.771v-28.432a9.8 9.8 0 0 1 9.804-9.796z"/><path fill="#B8D0E0" d="M630.81 114.349a4.978 4.978 0 1 0 0-9.957 4.978 4.978 0 0 0 0 9.957zm-15.398 0a4.978 4.978 0 1 0 0-9.957 4.978 4.978 0 0 0 0 9.957zm-15.401 0a4.978 4.978 0 1 0 0-9.957 4.978 4.978 0 0 0 0 9.957zm-18.703-10.334a1.512 1.512 0 0 1-.931 1.392 1.503 1.503 0 0 1-2.054-1.098 1.509 1.509 0 0 1 .64-1.547 1.507 1.507 0 0 1 2.345 1.253zm0 5.356a1.511 1.511 0 0 1-.929 1.394 1.501 1.501 0 0 1-1.643-.325 1.505 1.505 0 0 1 1.065-2.573 1.498 1.498 0 0 1 1.065.44 1.517 1.517 0 0 1 .442 1.064zm0 5.357a1.514 1.514 0 0 1-.929 1.394 1.51 1.51 0 0 1-1.643-.325 1.505 1.505 0 0 1 .227-2.319 1.507 1.507 0 0 1 2.345 1.25z"/><path stroke="#B8D0E0" stroke-width="3" d="M214.577 100.746h349.551c2.2 0 3.982 1.783 3.982 3.981v9.289a3.981 3.981 0 0 1-3.982 3.981H214.577a3.981 3.981 0 0 1-3.982-3.981v-9.289a3.981 3.981 0 0 1 3.982-3.981z"/><mask id="b" fill="#fff"><path d="M169.927 116.092c3.712-3.711 3.712-9.729 0-13.441-3.713-3.712-9.732-3.712-13.444 0-3.713 3.712-3.713 9.73 0 13.441 3.712 3.712 9.731 3.712 13.444 0z"/></mask><path fill="#B8D0E0" d="M167.806 104.772a6.505 6.505 0 0 1 0 9.199l4.242 4.243c4.884-4.884 4.884-12.801 0-17.685l-4.242 4.243zm0 9.199a6.509 6.509 0 0 1-9.202 0l-4.242 4.243c4.884 4.883 12.802 4.883 17.686 0l-4.242-4.243zm-9.202 0a6.503 6.503 0 0 1 0-9.199l-4.242-4.243c-4.885 4.884-4.885 12.801 0 17.685l4.242-4.243zm0-9.199a6.509 6.509 0 0 1 9.202 0l4.242-4.243c-4.884-4.883-12.802-4.883-17.686 0l4.242 4.243z" mask="url(#b)"/><mask id="c" fill="#fff"><path d="M138.407 118.42c5-1.602 7.754-6.953 6.151-11.952-1.602-4.999-6.954-7.752-11.954-6.15a9.505 9.505 0 1 0 5.803 18.102z"/></mask><path fill="#B8D0E0" d="m144.558 106.468-2.856.916 2.856-.916zm-6.151 11.952.915 2.857-.915-2.857zm-11.954-6.15-2.857.915 2.857-.915zm6.151-11.952.916 2.857-.916-2.857zm9.098 7.066a6.505 6.505 0 0 1-4.21 8.179l1.83 5.714c6.578-2.108 10.201-9.148 8.093-15.725l-5.713 1.832zm-4.21 8.179a6.507 6.507 0 0 1-8.182-4.209l-5.714 1.831c2.108 6.577 9.149 10.199 15.726 8.092l-1.83-5.714zm-8.182-4.209a6.503 6.503 0 0 1 4.21-8.179l-1.831-5.714c-6.577 2.107-10.201 9.147-8.093 15.724l5.714-1.831zm4.21-8.179a6.507 6.507 0 0 1 8.182 4.209l5.713-1.832c-2.108-6.576-9.149-10.199-15.726-8.091l1.831 5.714z" mask="url(#c)"/><mask id="d" fill="#fff"><path d="M200.143 111.59c1.227-5.103-1.916-10.236-7.021-11.463-5.104-1.227-10.237 1.916-11.465 7.019-1.227 5.104 1.916 10.236 7.021 11.463 5.104 1.228 10.237-1.915 11.465-7.019z"/></mask><path fill="#B8D0E0" d="m193.122 100.127-.701 2.917.701-2.917zm7.021 11.463-2.917-.701 2.917.701zm-11.465 7.019-.702 2.917.702-2.917zm-7.021-11.463-2.917-.701 2.917.701zm10.764-4.102a6.505 6.505 0 0 1 4.805 7.845l5.834 1.403c1.615-6.715-2.521-13.467-9.236-15.082l-1.403 5.834zm4.805 7.845a6.505 6.505 0 0 1-7.847 4.803l-1.403 5.834c6.715 1.615 13.469-2.519 15.084-9.234l-5.834-1.403zm-7.847 4.803a6.503 6.503 0 0 1-4.805-7.844l-5.834-1.403c-1.615 6.715 2.521 13.467 9.236 15.081l1.403-5.834zm-4.805-7.844a6.506 6.506 0 0 1 7.847-4.804l1.403-5.834c-6.715-1.614-13.469 2.52-15.084 9.235l5.834 1.403z" mask="url(#d)"/><path fill="#497594" d="M127.188 147.387h241.875v134.974H127.188z"/><path fill="#CBEAFF" d="M127.188 291.734h153.75v85.296h-153.75zm172.5 0h153.75v85.296h-153.75zm172.5 0h153.75v85.296h-153.75zm-86.25-144.347h241.875v11.248H385.938zm0 20.621h241.875v11.248H385.938zm0 20.621h241.875v11.248H385.938zm0 20.621h241.875v11.248H385.938zm0 20.621h241.875v11.248H385.938zm0 20.621h241.875v11.248H385.938zm0 20.621h241.875v11.248H385.938z"/><path fill="#497594" d="M127.188 386.404h153.75v12.185h-153.75zm172.5 0h153.75v12.185h-153.75zm172.5 0h153.75v12.185h-153.75z"/><g filter="url(#e)"><path fill="#0098FF" d="M558.387 308.811c3.571 0 5.713-4.759 2.857-7.615l-67.603-69.494c-2.618-2.856-7.141-.952-7.141 3.094v102.098c0 3.808 4.285 5.95 7.141 3.094l20.471-21.181 12.616 30.701c.952 2.142 3.571 3.332 5.713 2.38l11.664-4.998c2.142-.952 3.094-3.57 2.142-5.712l-13.092-32.367h25.232z"/></g></g><g filter="url(#f)"><path fill="#E6F5FF" d="M10.5 211.336c0-8.837 7.163-16 16-16h146c38.66 0 70 31.34 70 70v146c0 8.836-7.163 16-16 16h-146c-38.66 0-70-31.34-70-70v-146z"/><g clip-path="url(#g)"><rect width="181" height="181" x="36.5" y="221.336" fill="#81A6C1" rx="90.5"/><path fill="#F7CE97" d="m117.591 302.89-9.724 2.659c-.742-1.85 3.141-9.623 3.529-12.921.585-4.849 9.521-6.971 9.521-6.971s6.562-5.522 22.551 1.408c14.315 2.373 28.372-14.628 28.372-14.628l28.732 38.348s-11.296 7.413-17.382 12.643c-10.439 8.963-6.801 10.255-19.511 22.441l-17.6 11.643c-8.412 4.658-20.341 5.019-27.202-3.155l-16.546-18.212c-7.528-10.045 4.461-17.287 15.26-33.255z"/><path fill="#E0B886" d="M152.322 286.303s24.55 15.961 28.991 38.764c-.225.251-1.075.72-1.231.986-.51-6.461-24.815-34.357-29.855-39.199.946-.17 2.095-.551 2.095-.551z" opacity=".23"/><path fill="#FFE6B5" d="m149.255 359.75-13.601-11.201 14.016 10.398 2.217 1.143c4.209 3.305 10.201 1.271 12.01-1.361 1.618-2.346 2.421-5.488-.905-8.568l-6.943-5.094-8.317-6.481 13.234 9.711c4.311 3.401 10.132 2.863 12.683-.68 1.87-2.597 1.965-7.902-5.339-13.315-6.766-5.005-8.997-6.257-13.417-9.147 0 0-29.399-20.789-35.418-35.173a24.977 24.977 0 0 0-17.511-.312c-6.359 1.142-20.756-8.086-20.756-8.086l-22.666 31.962s10.758 3.102 13.934 14.465c2.299 8.222 16.26 22.442 35.805 37.084 0 0 8.107 4.713 12.316 8.052 3.639 2.89 10.099 3.971 13.418.204 5.216-5.924-6.318-10.847-9.895-14.071l13.411 9.31c4.189 3.299 9.317 2.625 12.003-.469.959-1.074 3.284-4.393-.279-8.371z"/><path fill="#EBC68F" d="m147.738 338.586 8.304 6.508 4.203 3.088.299-.198-12.806-9.398zm-1.489 18.708.68-.353-11.296-8.379 10.616 8.732z"/><path fill="#F7D69F" d="M168.011 334.037c-4.597-3.319-9.956-7.039-15.131-10.29 1.747 3.435 3.91 7.692 1.734 10.317-3.435 4.148-7.794 1.632-9.48 1.21.721 2.04 3.216 5.74-1.007 9.521-3.244 3.475-8.684 1.687-13.716-1.04 4.263 4.264 3.223 10.772 1.013 12.594-2.72 3.285-8.8 4.679-12.357.415 3.115 8.202-4.57 12.241-11.819 7.617l1.04.809s8.107 4.713 12.316 8.052c3.638 2.897 10.099 3.978 13.418.211 5.216-5.924-6.318-10.881-9.895-14.078l13.404 9.331c4.189 3.298 9.316 2.632 12.003-.469.959-1.102 3.284-4.421-.279-8.379l-13.601-11.2 14.002 10.411 2.217 1.143c4.21 3.312 10.201 1.272 12.01-1.36 1.618-2.34 2.421-5.481-.905-8.569l-6.936-5.094-8.31-6.521 13.233 9.711c4.312 3.4 10.086 2.829 12.684-.68 2.414-3.237.822-9.031-5.638-13.662z"/><path fill="#E0B886" d="M160.523 326.311c-11.118-8.48-25.032-17.743-29.024-25.047-1.129.342-2.288.57-3.462.68 10.609 11.936 26.522 22.986 26.522 22.986 4.251 2.455 7.297 4.808 13.778 9.358a17.147 17.147 0 0 1 3.285 2.965c.585-.775 1.245-1.7 1.714-2.373-.021.006-10.589-6.876-12.813-8.569z" opacity=".23"/><path fill="#F7CE97" d="M132.954 285.195c.15-4.699-22.864 2.951-22.864 2.951-6.29 2.938-6.086 6.801-17.593 11.84-8.392 3.666-6.12 6.025-3.046 9.235 3.108 3.21 15.117 4.115 21.761-2.04 5.611-5.182 12.105-4.808 16.845-5.257 3.401-.319 19.341-4.509 4.761-8.67-2.646-.755-3.795.176-4.577-.64l4.713-7.419z"/><g opacity=".32"><path fill="#AB763A" d="M126.113 339.905c-2.721-3.203-7.774-3.4-11.33-.367l-.952.803c3.108-2.966 3.747-7.556 1.299-10.664-2.619-3.305-7.719-3.638-11.405-.727l-1.564 1.237a7.676 7.676 0 0 0 .054-8.092c-2.34-3.618-7.48-4.448-11.513-1.85l-14.077 9.079c-4.033 2.591-5.4 7.637-3.06 11.255 2.339 3.617 7.48 4.447 11.513 1.856l8.541-5.508-9.133 7.181c-3.672 2.897-4.543 7.943-1.924 11.255 2.618 3.312 7.725 3.645 11.397.741l17.974-14.193-14.913 12.575c-3.557 2.999-4.257 8.024-1.558 11.234 2.7 3.21 7.773 3.367 11.337.361l17.749-14.962c3.571-2.978 4.264-8.011 1.565-11.214zm7.276 21.647c3.135-2.625 3.761-7.046 1.401-9.868-2.36-2.822-6.8-2.986-9.963-.361l-13.818 11.595c-3.136 2.626-3.768 7.046-1.401 9.868 2.366 2.822 6.8 2.992 9.956.361l13.825-11.595z" opacity=".42"/></g><path fill="#F7CE97" d="M99.094 322.237c-2.333-3.624-7.48-4.454-11.507-1.849l-14.077 9.078c-4.033 2.592-5.4 7.638-3.06 11.255 2.332 3.625 7.48 4.455 11.513 1.857l14.084-9.086c4.026-2.591 5.4-7.63 3.054-11.255h-.007z"/><path fill="#F7CE97" d="M112.015 329.827c-2.618-3.312-7.719-3.638-11.405-.728l-19.232 15.179c-3.672 2.897-4.536 7.943-1.924 11.255 2.618 3.312 7.725 3.638 11.398.735l19.232-15.179c3.679-2.911 4.542-7.943 1.931-11.262z"/><path fill="#F7CE97" d="M122.998 340.028c-2.72-3.196-7.773-3.36-11.33-.361l-17.763 14.962c-3.55 2.992-4.25 8.024-1.55 11.234 2.72 3.196 7.779 3.4 11.336.361l17.756-14.962c3.557-2.999 4.251-8.024 1.551-11.234zm8.677 11.799c-2.359-2.822-6.8-2.992-9.962-.361l-13.853 11.595c-3.135 2.625-3.768 7.046-1.401 9.868 2.353 2.822 6.801 2.992 9.956.36l13.86-11.595c3.135-2.625 3.76-7.045 1.4-9.867z"/><path fill="#F7DFC1" d="M97.618 303.679c-3.917 1.523-12.493-.252-8.297-2.19 6.12-2.822 4.196-1.755 6.237-2.795a28.331 28.331 0 0 0 7.29-5.046c.843 2.176-1.326 8.507-5.23 10.031zm-7.29 24.223c1.544 2.387 4.352 3.319 6.277 2.075 1.924-1.245 2.237-4.176.68-6.57s-4.352-3.312-6.277-2.074c-1.925 1.238-2.217 4.182-.68 6.569zm13.492 7.889c1.537 2.387 4.346 3.319 6.27 2.081 1.925-1.238 2.238-4.189.68-6.569-1.557-2.38-4.359-3.319-6.276-2.074-1.918 1.244-2.211 4.182-.674 6.562zm11.269 10.602c1.544 2.394 4.345 3.319 6.27 2.074 1.925-1.244 2.237-4.175.68-6.569s-4.346-3.312-6.27-2.074c-1.925 1.238-2.224 4.189-.68 6.569zm9.269 11.405c1.36 2.149 3.91 2.978 5.638 1.863 1.727-1.115 2.04-3.761.625-5.91-1.414-2.149-3.91-2.978-5.644-1.863-1.734 1.115-2.006 3.781-.619 5.91z"/><path fill="#fff" d="m189.032 321.34 4.182-3.135-31.188-41.47-4.182 3.142 31.188 41.463zm-99.255-39.869-29.752 37.89 3.813 2.994 29.753-37.89-3.814-2.994z"/><path fill="#E57A3E" d="m195.179 320.306 28.719-22.326a99.405 99.405 0 0 0-30.052-49.644l-33.323 25.944 34.656 46.026z"/><path fill="#CE5C40" d="m177.328 296.606 17.851 23.7 28.719-22.326a98.803 98.803 0 0 0-12.044-28.25l-34.526 26.876z"/><path fill="#fff" d="M180.986 271.104a3.51 3.51 0 1 0 .681-4.917 3.513 3.513 0 0 0-.681 4.917zm-8.922 6.705c.418.555.992.972 1.648 1.2a3.513 3.513 0 0 0 4.629-2.832 3.515 3.515 0 0 0-1.703-3.51 3.51 3.51 0 0 0-5.171 3.912 3.5 3.5 0 0 0 .597 1.23z"/><path fill="#17AFBC" d="m41.112 273.056 33.921 27.134 18.362-23.428-33.82-27.059a99.663 99.663 0 0 0-18.463 23.353z"/><path fill="#149BA6" d="m56.454 323.856 18.58-23.666-33.922-27.134A98.863 98.863 0 0 0 30 302.693l26.454 21.163z"/></g><path stroke="#fff" stroke-width="10" d="M172.5 190.336h-146c-11.598 0-21 9.402-21 21v146c0 41.421 33.579 75 75 75h146c11.598 0 21-9.402 21-21v-146c0-41.422-33.579-75-75-75z"/></g><g filter="url(#h)"><mask id="i" width="151" height="179" x="568.5" y="35.047" fill="#000" maskUnits="userSpaceOnUse"><path fill="#fff" d="M568.5 35.047h151v179h-151z"/><path fill-rule="evenodd" d="M608.5 45.047c-16.569 0-30 13.431-30 30v71c0 16.568 13.431 30 30 30h16.291l14.097 23.79c3.098 5.229 10.666 5.229 13.765 0l14.096-23.79H679.5c16.569 0 30-13.432 30-30v-71c0-16.569-13.431-30-30-30h-71z" clip-rule="evenodd"/></mask><path fill="#A3E0C3" fill-rule="evenodd" d="M608.5 45.047c-16.569 0-30 13.431-30 30v71c0 16.568 13.431 30 30 30h16.291l14.097 23.79c3.098 5.229 10.666 5.229 13.765 0l14.096-23.79H679.5c16.569 0 30-13.432 30-30v-71c0-16.569-13.431-30-30-30h-71z" clip-rule="evenodd"/><path fill="#fff" d="m624.791 176.047 8.603-5.098-2.905-4.902h-5.698v10zm14.097 23.79 8.603-5.098-8.603 5.098zm13.765 0 8.603 5.097-8.603-5.097zm14.096-23.79v-10h-5.698l-2.905 4.902 8.603 5.098zm-78.249-101c0-11.046 8.954-20 20-20v-20c-22.091 0-40 17.908-40 40h20zm0 71v-71h-20v71h20zm20 20c-11.046 0-20-8.955-20-20h-20c0 22.091 17.909 40 40 40v-20zm16.291 0H608.5v20h16.291v-20zm22.7 28.692-14.097-23.79-17.206 10.195 14.097 23.79 17.206-10.195zm-3.441 0c.774-1.307 2.666-1.307 3.441 0l-17.206 10.195c6.971 11.766 23.999 11.766 30.971 0l-17.206-10.195zm14.096-23.79-14.096 23.79 17.206 10.195 14.097-23.79-17.207-10.195zm21.354-4.902h-12.751v20H679.5v-20zm20-20c0 11.045-8.954 20-20 20v20c22.091 0 40-17.909 40-40h-20zm0-71v71h20v-71h-20zm-20-20c11.046 0 20 8.954 20 20h20c0-22.092-17.909-40-40-40v20zm-71 0h71v-20h-71v20z" mask="url(#i)"/></g><path fill="#fff" d="M628.953 67.175h30.095v86.743h-30.095z"/><path fill="#fff" d="M687.372 95.5v30.094H600.63V95.5z"/><defs><filter id="e" width="86.067" height="135.884" x="476.5" y="230.336" color-interpolation-filters="sRGB" filterUnits="userSpaceOnUse"><feFlood flood-opacity="0" result="BackgroundImageFix"/><feColorMatrix in="SourceAlpha" result="hardAlpha" values="0 0 0 0 0 0 0 0 0 0 0 0 0 0 0 0 0 0 127 0"/><feOffset dx="-10" dy="14"/><feComposite in2="hardAlpha" operator="out"/><feColorMatrix values="0 0 0 0 0 0 0 0 0 0 0 0 0 0 0 0 0 0 0.09 0"/><feBlend in2="BackgroundImageFix" result="effect1_dropShadow_74_2126"/><feBlend in="SourceGraphic" in2="effect1_dropShadow_74_2126" result="shape"/></filter><filter id="f" width="260" height="266" x=".5" y="185.336" color-interpolation-filters="sRGB" filterUnits="userSpaceOnUse"><feFlood flood-opacity="0" result="BackgroundImageFix"/><feColorMatrix in="SourceAlpha" result="hardAlpha" values="0 0 0 0 0 0 0 0 0 0 0 0 0 0 0 0 0 0 127 0"/><feOffset dx="8" dy="14"/><feComposite in2="hardAlpha" operator="out"/><feColorMatrix values="0 0 0 0 0 0 0 0 0 0 0 0 0 0 0 0 0 0 0.09 0"/><feBlend in2="BackgroundImageFix" result="effect1_dropShadow_74_2126"/><feBlend in="SourceGraphic" in2="effect1_dropShadow_74_2126" result="shape"/></filter><filter id="h" width="161" height="192.712" x="558.5" y="35.047" color-interpolation-filters="sRGB" filterUnits="userSpaceOnUse"><feFlood flood-opacity="0" result="BackgroundImageFix"/><feColorMatrix in="SourceAlpha" result="hardAlpha" values="0 0 0 0 0 0 0 0 0 0 0 0 0 0 0 0 0 0 127 0"/><feOffset dx="-10" dy="14"/><feComposite in2="hardAlpha" operator="out"/><feColorMatrix values="0 0 0 0 0 0 0 0 0 0 0 0 0 0 0 0 0 0 0.09 0"/><feBlend in2="BackgroundImageFix" result="effect1_dropShadow_74_2126"/><feBlend in="SourceGraphic" in2="effect1_dropShadow_74_2126" result="shape"/></filter><clipPath id="a"><path fill="#fff" d="M107.5 88.336h540v329h-540z"/></clipPath><clipPath id="g"><rect width="181" height="181" x="36.5" y="221.336" fill="#fff" rx="90.5"/></clipPath></defs></svg>