<svg xmlns="http://www.w3.org/2000/svg" viewBox="0 0 1422 800"><path fill="none" stroke="#141b3e" stroke-linejoin="round" stroke-width="5" d="M1422 200h-355.5L1422 0zM1066.5 0v200L711 0zm0 400H711l355.5-200zm0-200v200H1422zM711 0v200H355.5zM0 0h355.5v200zm355.5 200L0 400V200zm355.5 0v200L355.5 200zm0 200H355.5v200zm-355.5 0L0 600h355.5zm0 400L0 600v200zM711 600v200H355.5zm711 0h-355.5V400zm-355.5-200v100H888.75zM888.75 500V400L711 500zm0 100V500H711zm0 0h177.75L888.75 500zm177.75 0v200L711 600zm0 200V600H1422z" shape-rendering="crispEdges"/></svg>