<svg xmlns="http://www.w3.org/2000/svg" width="175" height="358" fill="none"><path fill="#195E8A" d="M5.645 2.797c0 1.545-1.264 2.797-2.822 2.797C1.263 5.594 0 4.342 0 2.797 0 1.252 1.264 0 2.823 0 4.38 0 5.645 1.252 5.645 2.797zm16.935 0c0 1.545-1.263 2.797-2.822 2.797-1.559 0-2.822-1.252-2.822-2.797C16.936 1.252 18.199 0 19.758 0c1.559 0 2.823 1.252 2.823 2.797zm16.936 0c0 1.545-1.264 2.797-2.822 2.797-1.56 0-2.823-1.252-2.823-2.797C33.871 1.252 35.135 0 36.694 0c1.558 0 2.822 1.252 2.822 2.797zm16.936 0c0 1.545-1.264 2.797-2.823 2.797s-2.823-1.252-2.823-2.797C50.806 1.252 52.07 0 53.63 0s2.823 1.252 2.823 2.797zm16.935 0c0 1.545-1.264 2.797-2.823 2.797-1.558 0-2.822-1.252-2.822-2.797C67.742 1.252 69.006 0 70.564 0c1.56 0 2.823 1.252 2.823 2.797zm16.936 0c0 1.545-1.264 2.797-2.823 2.797s-2.823-1.252-2.823-2.797C84.677 1.252 85.941 0 87.5 0s2.823 1.252 2.823 2.797zm16.935 0c0 1.545-1.264 2.797-2.823 2.797-1.558 0-2.822-1.252-2.822-2.797 0-1.545 1.264-2.797 2.822-2.797 1.559 0 2.823 1.252 2.823 2.797zm16.936 0c0 1.545-1.264 2.797-2.823 2.797s-2.823-1.252-2.823-2.797c0-1.545 1.264-2.797 2.823-2.797s2.823 1.252 2.823 2.797zm16.935 0c0 1.545-1.264 2.797-2.823 2.797-1.558 0-2.822-1.252-2.822-2.797 0-1.545 1.264-2.797 2.822-2.797 1.559 0 2.823 1.252 2.823 2.797zm16.936 0c0 1.545-1.264 2.797-2.823 2.797s-2.823-1.252-2.823-2.797c0-1.545 1.264-2.797 2.823-2.797s2.823 1.252 2.823 2.797zm16.935 0c0 1.545-1.264 2.797-2.823 2.797-1.558 0-2.822-1.252-2.822-2.797 0-1.545 1.264-2.797 2.822-2.797C173.736 0 175 1.252 175 2.797zM5.645 19.578c0 1.545-1.264 2.797-2.822 2.797-1.56 0-2.823-1.252-2.823-2.797 0-1.544 1.264-2.797 2.823-2.797 1.558 0 2.822 1.253 2.822 2.797zm16.935 0c0 1.545-1.263 2.797-2.822 2.797-1.559 0-2.822-1.252-2.822-2.797 0-1.544 1.263-2.797 2.822-2.797 1.559 0 2.823 1.253 2.823 2.797zm16.936 0c0 1.545-1.264 2.797-2.822 2.797-1.56 0-2.823-1.252-2.823-2.797 0-1.544 1.264-2.797 2.823-2.797 1.558 0 2.822 1.253 2.822 2.797zm16.936 0c0 1.545-1.264 2.797-2.823 2.797s-2.823-1.252-2.823-2.797c0-1.544 1.264-2.797 2.823-2.797s2.823 1.253 2.823 2.797zm16.935 0c0 1.545-1.264 2.797-2.823 2.797-1.558 0-2.822-1.252-2.822-2.797 0-1.544 1.264-2.797 2.822-2.797 1.56 0 2.823 1.253 2.823 2.797zm16.936 0c0 1.545-1.264 2.797-2.823 2.797s-2.823-1.252-2.823-2.797c0-1.544 1.264-2.797 2.823-2.797s2.823 1.253 2.823 2.797zm16.935 0c0 1.545-1.264 2.797-2.823 2.797-1.558 0-2.822-1.252-2.822-2.797 0-1.544 1.264-2.797 2.822-2.797 1.559 0 2.823 1.253 2.823 2.797zm16.936 0c0 1.545-1.264 2.797-2.823 2.797s-2.823-1.252-2.823-2.797c0-1.544 1.264-2.797 2.823-2.797s2.823 1.253 2.823 2.797zm16.935 0c0 1.545-1.264 2.797-2.823 2.797-1.558 0-2.822-1.252-2.822-2.797 0-1.544 1.264-2.797 2.822-2.797 1.559 0 2.823 1.253 2.823 2.797zm16.936 0c0 1.545-1.264 2.797-2.823 2.797s-2.823-1.252-2.823-2.797c0-1.544 1.264-2.797 2.823-2.797s2.823 1.253 2.823 2.797zm16.935 0c0 1.545-1.264 2.797-2.823 2.797-1.558 0-2.822-1.252-2.822-2.797 0-1.544 1.264-2.797 2.822-2.797 1.559 0 2.823 1.253 2.823 2.797zM5.645 36.36c0 1.544-1.264 2.796-2.822 2.796C1.263 39.156 0 37.904 0 36.36c0-1.544 1.264-2.797 2.823-2.797 1.558 0 2.822 1.253 2.822 2.797zm16.935 0c0 1.544-1.263 2.796-2.822 2.796-1.559 0-2.822-1.252-2.822-2.797 0-1.544 1.263-2.797 2.822-2.797 1.559 0 2.823 1.253 2.823 2.797zm16.936 0c0 1.544-1.264 2.796-2.822 2.796-1.56 0-2.823-1.252-2.823-2.797 0-1.544 1.264-2.797 2.823-2.797 1.558 0 2.822 1.253 2.822 2.797zm16.936 0c0 1.544-1.264 2.796-2.823 2.796s-2.823-1.252-2.823-2.797c0-1.544 1.264-2.797 2.823-2.797s2.823 1.253 2.823 2.797zm16.935 0c0 1.544-1.264 2.796-2.823 2.796-1.558 0-2.822-1.252-2.822-2.797 0-1.544 1.264-2.797 2.822-2.797 1.56 0 2.823 1.253 2.823 2.797zm16.936 0c0 1.544-1.264 2.796-2.823 2.796s-2.823-1.252-2.823-2.797c0-1.544 1.264-2.797 2.823-2.797s2.823 1.253 2.823 2.797zm16.935 0c0 1.544-1.264 2.796-2.823 2.796-1.558 0-2.822-1.252-2.822-2.797 0-1.544 1.264-2.797 2.822-2.797 1.559 0 2.823 1.253 2.823 2.797zm16.936 0c0 1.544-1.264 2.796-2.823 2.796s-2.823-1.252-2.823-2.797c0-1.544 1.264-2.797 2.823-2.797s2.823 1.253 2.823 2.797zm16.935 0c0 1.544-1.264 2.796-2.823 2.796-1.558 0-2.822-1.252-2.822-2.797 0-1.544 1.264-2.797 2.822-2.797 1.559 0 2.823 1.253 2.823 2.797zm16.936 0c0 1.544-1.264 2.796-2.823 2.796s-2.823-1.252-2.823-2.797c0-1.544 1.264-2.797 2.823-2.797s2.823 1.253 2.823 2.797zm16.935 0c0 1.544-1.264 2.796-2.823 2.796-1.558 0-2.822-1.252-2.822-2.797 0-1.544 1.264-2.797 2.822-2.797 1.559 0 2.823 1.253 2.823 2.797zM5.645 53.14c0 1.545-1.264 2.797-2.822 2.797-1.56 0-2.823-1.252-2.823-2.796 0-1.545 1.264-2.797 2.823-2.797 1.558 0 2.822 1.252 2.822 2.797zm16.935 0c0 1.545-1.263 2.797-2.822 2.797-1.559 0-2.822-1.252-2.822-2.796 0-1.545 1.263-2.797 2.822-2.797 1.559 0 2.823 1.252 2.823 2.797zm16.936 0c0 1.545-1.264 2.797-2.822 2.797-1.56 0-2.823-1.252-2.823-2.796 0-1.545 1.264-2.797 2.823-2.797 1.558 0 2.822 1.252 2.822 2.797zm16.936 0c0 1.545-1.264 2.797-2.823 2.797s-2.823-1.252-2.823-2.796c0-1.545 1.264-2.797 2.823-2.797s2.823 1.252 2.823 2.797zm16.935 0c0 1.545-1.264 2.797-2.823 2.797-1.558 0-2.822-1.252-2.822-2.796 0-1.545 1.264-2.797 2.822-2.797 1.56 0 2.823 1.252 2.823 2.797zm16.936 0c0 1.545-1.264 2.797-2.823 2.797s-2.823-1.252-2.823-2.796c0-1.545 1.264-2.797 2.823-2.797s2.823 1.252 2.823 2.797zm16.935 0c0 1.545-1.264 2.797-2.823 2.797-1.558 0-2.822-1.252-2.822-2.796 0-1.545 1.264-2.797 2.822-2.797 1.559 0 2.823 1.252 2.823 2.797zm16.936 0c0 1.545-1.264 2.797-2.823 2.797s-2.823-1.252-2.823-2.796c0-1.545 1.264-2.797 2.823-2.797s2.823 1.252 2.823 2.797zm16.935 0c0 1.545-1.264 2.797-2.823 2.797-1.558 0-2.822-1.252-2.822-2.796 0-1.545 1.264-2.797 2.822-2.797 1.559 0 2.823 1.252 2.823 2.797zm16.936 0c0 1.545-1.264 2.797-2.823 2.797s-2.823-1.252-2.823-2.796c0-1.545 1.264-2.797 2.823-2.797s2.823 1.252 2.823 2.797zm16.935 0c0 1.545-1.264 2.797-2.823 2.797-1.558 0-2.822-1.252-2.822-2.796 0-1.545 1.264-2.797 2.822-2.797 1.559 0 2.823 1.252 2.823 2.797zM5.645 69.922c0 1.544-1.264 2.797-2.822 2.797-1.56 0-2.823-1.252-2.823-2.797 0-1.545 1.264-2.797 2.823-2.797 1.558 0 2.822 1.252 2.822 2.797zm16.935 0c0 1.544-1.263 2.797-2.822 2.797-1.559 0-2.822-1.252-2.822-2.797 0-1.545 1.263-2.797 2.822-2.797 1.559 0 2.823 1.252 2.823 2.797zm16.936 0c0 1.544-1.264 2.797-2.822 2.797-1.56 0-2.823-1.252-2.823-2.797 0-1.545 1.264-2.797 2.823-2.797 1.558 0 2.822 1.252 2.822 2.797zm16.936 0c0 1.544-1.264 2.797-2.823 2.797s-2.823-1.252-2.823-2.797c0-1.545 1.264-2.797 2.823-2.797s2.823 1.252 2.823 2.797zm16.935 0c0 1.544-1.264 2.797-2.823 2.797-1.558 0-2.822-1.252-2.822-2.797 0-1.545 1.264-2.797 2.822-2.797 1.56 0 2.823 1.252 2.823 2.797zm16.936 0c0 1.544-1.264 2.797-2.823 2.797s-2.823-1.252-2.823-2.797c0-1.545 1.264-2.797 2.823-2.797s2.823 1.252 2.823 2.797zm16.935 0c0 1.544-1.264 2.797-2.823 2.797-1.558 0-2.822-1.252-2.822-2.797 0-1.545 1.264-2.797 2.822-2.797 1.559 0 2.823 1.252 2.823 2.797zm16.936 0c0 1.544-1.264 2.797-2.823 2.797s-2.823-1.252-2.823-2.797c0-1.545 1.264-2.797 2.823-2.797s2.823 1.252 2.823 2.797zm16.935 0c0 1.544-1.264 2.797-2.823 2.797-1.558 0-2.822-1.252-2.822-2.797 0-1.545 1.264-2.797 2.822-2.797 1.559 0 2.823 1.252 2.823 2.797zm16.936 0c0 1.544-1.264 2.797-2.823 2.797s-2.823-1.252-2.823-2.797c0-1.545 1.264-2.797 2.823-2.797s2.823 1.252 2.823 2.797zm16.935 0c0 1.544-1.264 2.797-2.823 2.797-1.558 0-2.822-1.252-2.822-2.797 0-1.545 1.264-2.797 2.822-2.797 1.559 0 2.823 1.252 2.823 2.797zM5.645 86.703c0 1.545-1.264 2.797-2.822 2.797C1.263 89.5 0 88.248 0 86.703c0-1.544 1.264-2.797 2.823-2.797 1.558 0 2.822 1.252 2.822 2.797zm16.935 0c0 1.545-1.263 2.797-2.822 2.797-1.559 0-2.822-1.252-2.822-2.797 0-1.544 1.263-2.797 2.822-2.797 1.559 0 2.823 1.252 2.823 2.797zm16.936 0c0 1.545-1.264 2.797-2.822 2.797-1.56 0-2.823-1.252-2.823-2.797 0-1.544 1.264-2.797 2.823-2.797 1.558 0 2.822 1.252 2.822 2.797zm16.936 0c0 1.545-1.264 2.797-2.823 2.797s-2.823-1.252-2.823-2.797c0-1.544 1.264-2.797 2.823-2.797s2.823 1.252 2.823 2.797zm16.935 0c0 1.545-1.264 2.797-2.823 2.797-1.558 0-2.822-1.252-2.822-2.797 0-1.544 1.264-2.797 2.822-2.797 1.56 0 2.823 1.252 2.823 2.797zm16.936 0c0 1.545-1.264 2.797-2.823 2.797s-2.823-1.252-2.823-2.797c0-1.544 1.264-2.797 2.823-2.797s2.823 1.252 2.823 2.797zm16.935 0c0 1.545-1.264 2.797-2.823 2.797-1.558 0-2.822-1.252-2.822-2.797 0-1.544 1.264-2.797 2.822-2.797 1.559 0 2.823 1.252 2.823 2.797zm16.936 0c0 1.545-1.264 2.797-2.823 2.797s-2.823-1.252-2.823-2.797c0-1.544 1.264-2.797 2.823-2.797s2.823 1.252 2.823 2.797zm16.935 0c0 1.545-1.264 2.797-2.823 2.797-1.558 0-2.822-1.252-2.822-2.797 0-1.544 1.264-2.797 2.822-2.797 1.559 0 2.823 1.252 2.823 2.797zm16.936 0c0 1.545-1.264 2.797-2.823 2.797s-2.823-1.252-2.823-2.797c0-1.544 1.264-2.797 2.823-2.797s2.823 1.252 2.823 2.797zm16.935 0c0 1.545-1.264 2.797-2.823 2.797-1.558 0-2.822-1.252-2.822-2.797 0-1.544 1.264-2.797 2.822-2.797 1.559 0 2.823 1.252 2.823 2.797zM5.645 103.484c0 1.545-1.264 2.797-2.822 2.797-1.56 0-2.823-1.252-2.823-2.797 0-1.544 1.264-2.796 2.823-2.796 1.558 0 2.822 1.252 2.822 2.796zm16.935 0c0 1.545-1.263 2.797-2.822 2.797-1.559 0-2.822-1.252-2.822-2.797 0-1.544 1.263-2.796 2.822-2.796 1.559 0 2.823 1.252 2.823 2.796zm16.936 0c0 1.545-1.264 2.797-2.822 2.797-1.56 0-2.823-1.252-2.823-2.797 0-1.544 1.264-2.796 2.823-2.796 1.558 0 2.822 1.252 2.822 2.796zm16.936 0c0 1.545-1.264 2.797-2.823 2.797s-2.823-1.252-2.823-2.797c0-1.544 1.264-2.796 2.823-2.796s2.823 1.252 2.823 2.796zm16.935 0c0 1.545-1.264 2.797-2.823 2.797-1.558 0-2.822-1.252-2.822-2.797 0-1.544 1.264-2.796 2.822-2.796 1.56 0 2.823 1.252 2.823 2.796zm16.936 0c0 1.545-1.264 2.797-2.823 2.797s-2.823-1.252-2.823-2.797c0-1.544 1.264-2.796 2.823-2.796s2.823 1.252 2.823 2.796zm16.935 0c0 1.545-1.264 2.797-2.823 2.797-1.558 0-2.822-1.252-2.822-2.797 0-1.544 1.264-2.796 2.822-2.796 1.559 0 2.823 1.252 2.823 2.796zm16.936 0c0 1.545-1.264 2.797-2.823 2.797s-2.823-1.252-2.823-2.797c0-1.544 1.264-2.796 2.823-2.796s2.823 1.252 2.823 2.796zm16.935 0c0 1.545-1.264 2.797-2.823 2.797-1.558 0-2.822-1.252-2.822-2.797 0-1.544 1.264-2.796 2.822-2.796 1.559 0 2.823 1.252 2.823 2.796zm16.936 0c0 1.545-1.264 2.797-2.823 2.797s-2.823-1.252-2.823-2.797c0-1.544 1.264-2.796 2.823-2.796s2.823 1.252 2.823 2.796zm16.935 0c0 1.545-1.264 2.797-2.823 2.797-1.558 0-2.822-1.252-2.822-2.797 0-1.544 1.264-2.796 2.822-2.796 1.559 0 2.823 1.252 2.823 2.796zM5.645 120.266c0 1.544-1.264 2.796-2.822 2.796-1.56 0-2.823-1.252-2.823-2.796 0-1.545 1.264-2.797 2.823-2.797 1.558 0 2.822 1.252 2.822 2.797zm16.935 0c0 1.544-1.263 2.796-2.822 2.796-1.559 0-2.822-1.252-2.822-2.796 0-1.545 1.263-2.797 2.822-2.797 1.559 0 2.823 1.252 2.823 2.797zm16.936 0c0 1.544-1.264 2.796-2.822 2.796-1.56 0-2.823-1.252-2.823-2.796 0-1.545 1.264-2.797 2.823-2.797 1.558 0 2.822 1.252 2.822 2.797zm16.936 0c0 1.544-1.264 2.796-2.823 2.796s-2.823-1.252-2.823-2.796c0-1.545 1.264-2.797 2.823-2.797s2.823 1.252 2.823 2.797zm16.935 0c0 1.544-1.264 2.796-2.823 2.796-1.558 0-2.822-1.252-2.822-2.796 0-1.545 1.264-2.797 2.822-2.797 1.56 0 2.823 1.252 2.823 2.797zm16.936 0c0 1.544-1.264 2.796-2.823 2.796s-2.823-1.252-2.823-2.796c0-1.545 1.264-2.797 2.823-2.797s2.823 1.252 2.823 2.797zm16.935 0c0 1.544-1.264 2.796-2.823 2.796-1.558 0-2.822-1.252-2.822-2.796 0-1.545 1.264-2.797 2.822-2.797 1.559 0 2.823 1.252 2.823 2.797zm16.936 0c0 1.544-1.264 2.796-2.823 2.796s-2.823-1.252-2.823-2.796c0-1.545 1.264-2.797 2.823-2.797s2.823 1.252 2.823 2.797zm16.935 0c0 1.544-1.264 2.796-2.823 2.796-1.558 0-2.822-1.252-2.822-2.796 0-1.545 1.264-2.797 2.822-2.797 1.559 0 2.823 1.252 2.823 2.797zm16.936 0c0 1.544-1.264 2.796-2.823 2.796s-2.823-1.252-2.823-2.796c0-1.545 1.264-2.797 2.823-2.797s2.823 1.252 2.823 2.797zm16.935 0c0 1.544-1.264 2.796-2.823 2.796-1.558 0-2.822-1.252-2.822-2.796 0-1.545 1.264-2.797 2.822-2.797 1.559 0 2.823 1.252 2.823 2.797zM5.645 137.047c0 1.545-1.264 2.797-2.822 2.797-1.56 0-2.823-1.252-2.823-2.797 0-1.545 1.264-2.797 2.823-2.797 1.558 0 2.822 1.252 2.822 2.797zm16.935 0c0 1.545-1.263 2.797-2.822 2.797-1.559 0-2.822-1.252-2.822-2.797 0-1.545 1.263-2.797 2.822-2.797 1.559 0 2.823 1.252 2.823 2.797zm16.936 0c0 1.545-1.264 2.797-2.822 2.797-1.56 0-2.823-1.252-2.823-2.797 0-1.545 1.264-2.797 2.823-2.797 1.558 0 2.822 1.252 2.822 2.797zm16.936 0c0 1.545-1.264 2.797-2.823 2.797s-2.823-1.252-2.823-2.797c0-1.545 1.264-2.797 2.823-2.797s2.823 1.252 2.823 2.797zm16.935 0c0 1.545-1.264 2.797-2.823 2.797-1.558 0-2.822-1.252-2.822-2.797 0-1.545 1.264-2.797 2.822-2.797 1.56 0 2.823 1.252 2.823 2.797zm16.936 0c0 1.545-1.264 2.797-2.823 2.797s-2.823-1.252-2.823-2.797c0-1.545 1.264-2.797 2.823-2.797s2.823 1.252 2.823 2.797zm16.935 0c0 1.545-1.264 2.797-2.823 2.797-1.558 0-2.822-1.252-2.822-2.797 0-1.545 1.264-2.797 2.822-2.797 1.559 0 2.823 1.252 2.823 2.797zm16.936 0c0 1.545-1.264 2.797-2.823 2.797s-2.823-1.252-2.823-2.797c0-1.545 1.264-2.797 2.823-2.797s2.823 1.252 2.823 2.797zm16.935 0c0 1.545-1.264 2.797-2.823 2.797-1.558 0-2.822-1.252-2.822-2.797 0-1.545 1.264-2.797 2.822-2.797 1.559 0 2.823 1.252 2.823 2.797zm16.936 0c0 1.545-1.264 2.797-2.823 2.797s-2.823-1.252-2.823-2.797c0-1.545 1.264-2.797 2.823-2.797s2.823 1.252 2.823 2.797zm16.935 0c0 1.545-1.264 2.797-2.823 2.797-1.558 0-2.822-1.252-2.822-2.797 0-1.545 1.264-2.797 2.822-2.797 1.559 0 2.823 1.252 2.823 2.797zM5.645 153.828c0 1.545-1.264 2.797-2.822 2.797-1.56 0-2.823-1.252-2.823-2.797 0-1.545 1.264-2.797 2.823-2.797 1.558 0 2.822 1.252 2.822 2.797zm16.935 0c0 1.545-1.263 2.797-2.822 2.797-1.559 0-2.822-1.252-2.822-2.797 0-1.545 1.263-2.797 2.822-2.797 1.559 0 2.823 1.252 2.823 2.797zm16.936 0c0 1.545-1.264 2.797-2.822 2.797-1.56 0-2.823-1.252-2.823-2.797 0-1.545 1.264-2.797 2.823-2.797 1.558 0 2.822 1.252 2.822 2.797zm16.936 0c0 1.545-1.264 2.797-2.823 2.797s-2.823-1.252-2.823-2.797c0-1.545 1.264-2.797 2.823-2.797s2.823 1.252 2.823 2.797zm16.935 0c0 1.545-1.264 2.797-2.823 2.797-1.558 0-2.822-1.252-2.822-2.797 0-1.545 1.264-2.797 2.822-2.797 1.56 0 2.823 1.252 2.823 2.797zm16.936 0c0 1.545-1.264 2.797-2.823 2.797s-2.823-1.252-2.823-2.797c0-1.545 1.264-2.797 2.823-2.797s2.823 1.252 2.823 2.797zm16.935 0c0 1.545-1.264 2.797-2.823 2.797-1.558 0-2.822-1.252-2.822-2.797 0-1.545 1.264-2.797 2.822-2.797 1.559 0 2.823 1.252 2.823 2.797zm16.936 0c0 1.545-1.264 2.797-2.823 2.797s-2.823-1.252-2.823-2.797c0-1.545 1.264-2.797 2.823-2.797s2.823 1.252 2.823 2.797zm16.935 0c0 1.545-1.264 2.797-2.823 2.797-1.558 0-2.822-1.252-2.822-2.797 0-1.545 1.264-2.797 2.822-2.797 1.559 0 2.823 1.252 2.823 2.797zm16.936 0c0 1.545-1.264 2.797-2.823 2.797s-2.823-1.252-2.823-2.797c0-1.545 1.264-2.797 2.823-2.797s2.823 1.252 2.823 2.797zm16.935 0c0 1.545-1.264 2.797-2.823 2.797-1.558 0-2.822-1.252-2.822-2.797 0-1.545 1.264-2.797 2.822-2.797 1.559 0 2.823 1.252 2.823 2.797zM5.645 170.609c0 1.545-1.264 2.797-2.822 2.797-1.56 0-2.823-1.252-2.823-2.797 0-1.544 1.264-2.797 2.823-2.797 1.558 0 2.822 1.253 2.822 2.797zm16.935 0c0 1.545-1.263 2.797-2.822 2.797-1.559 0-2.822-1.252-2.822-2.797 0-1.544 1.263-2.797 2.822-2.797 1.559 0 2.823 1.253 2.823 2.797zm16.936 0c0 1.545-1.264 2.797-2.822 2.797-1.56 0-2.823-1.252-2.823-2.797 0-1.544 1.264-2.797 2.823-2.797 1.558 0 2.822 1.253 2.822 2.797zm16.936 0c0 1.545-1.264 2.797-2.823 2.797s-2.823-1.252-2.823-2.797c0-1.544 1.264-2.797 2.823-2.797s2.823 1.253 2.823 2.797zm16.935 0c0 1.545-1.264 2.797-2.823 2.797-1.558 0-2.822-1.252-2.822-2.797 0-1.544 1.264-2.797 2.822-2.797 1.56 0 2.823 1.253 2.823 2.797zm16.936 0c0 1.545-1.264 2.797-2.823 2.797s-2.823-1.252-2.823-2.797c0-1.544 1.264-2.797 2.823-2.797s2.823 1.253 2.823 2.797zm16.935 0c0 1.545-1.264 2.797-2.823 2.797-1.558 0-2.822-1.252-2.822-2.797 0-1.544 1.264-2.797 2.822-2.797 1.559 0 2.823 1.253 2.823 2.797zm16.936 0c0 1.545-1.264 2.797-2.823 2.797s-2.823-1.252-2.823-2.797c0-1.544 1.264-2.797 2.823-2.797s2.823 1.253 2.823 2.797zm16.935 0c0 1.545-1.264 2.797-2.823 2.797-1.558 0-2.822-1.252-2.822-2.797 0-1.544 1.264-2.797 2.822-2.797 1.559 0 2.823 1.253 2.823 2.797zm16.936 0c0 1.545-1.264 2.797-2.823 2.797s-2.823-1.252-2.823-2.797c0-1.544 1.264-2.797 2.823-2.797s2.823 1.253 2.823 2.797zm16.935 0c0 1.545-1.264 2.797-2.823 2.797-1.558 0-2.822-1.252-2.822-2.797 0-1.544 1.264-2.797 2.822-2.797 1.559 0 2.823 1.253 2.823 2.797zM5.645 187.391c0 1.544-1.264 2.797-2.822 2.797-1.56 0-2.823-1.253-2.823-2.797 0-1.545 1.264-2.797 2.823-2.797 1.558 0 2.822 1.252 2.822 2.797zm16.935 0c0 1.544-1.263 2.797-2.822 2.797-1.559 0-2.822-1.253-2.822-2.797 0-1.545 1.263-2.797 2.822-2.797 1.559 0 2.823 1.252 2.823 2.797zm16.936 0c0 1.544-1.264 2.797-2.822 2.797-1.56 0-2.823-1.253-2.823-2.797 0-1.545 1.264-2.797 2.823-2.797 1.558 0 2.822 1.252 2.822 2.797zm16.936 0c0 1.544-1.264 2.797-2.823 2.797s-2.823-1.253-2.823-2.797c0-1.545 1.264-2.797 2.823-2.797s2.823 1.252 2.823 2.797zm16.935 0c0 1.544-1.264 2.797-2.823 2.797-1.558 0-2.822-1.253-2.822-2.797 0-1.545 1.264-2.797 2.822-2.797 1.56 0 2.823 1.252 2.823 2.797zm16.936 0c0 1.544-1.264 2.797-2.823 2.797s-2.823-1.253-2.823-2.797c0-1.545 1.264-2.797 2.823-2.797s2.823 1.252 2.823 2.797zm16.935 0c0 1.544-1.264 2.797-2.823 2.797-1.558 0-2.822-1.253-2.822-2.797 0-1.545 1.264-2.797 2.822-2.797 1.559 0 2.823 1.252 2.823 2.797zm16.936 0c0 1.544-1.264 2.797-2.823 2.797s-2.823-1.253-2.823-2.797c0-1.545 1.264-2.797 2.823-2.797s2.823 1.252 2.823 2.797zm16.935 0c0 1.544-1.264 2.797-2.823 2.797-1.558 0-2.822-1.253-2.822-2.797 0-1.545 1.264-2.797 2.822-2.797 1.559 0 2.823 1.252 2.823 2.797zm16.936 0c0 1.544-1.264 2.797-2.823 2.797s-2.823-1.253-2.823-2.797c0-1.545 1.264-2.797 2.823-2.797s2.823 1.252 2.823 2.797zm16.935 0c0 1.544-1.264 2.797-2.823 2.797-1.558 0-2.822-1.253-2.822-2.797 0-1.545 1.264-2.797 2.822-2.797 1.559 0 2.823 1.252 2.823 2.797zM5.645 204.172c0 1.545-1.264 2.797-2.822 2.797-1.56 0-2.823-1.252-2.823-2.797 0-1.545 1.264-2.797 2.823-2.797 1.558 0 2.822 1.252 2.822 2.797zm16.935 0c0 1.545-1.263 2.797-2.822 2.797-1.559 0-2.822-1.252-2.822-2.797 0-1.545 1.263-2.797 2.822-2.797 1.559 0 2.823 1.252 2.823 2.797zm16.936 0c0 1.545-1.264 2.797-2.822 2.797-1.56 0-2.823-1.252-2.823-2.797 0-1.545 1.264-2.797 2.823-2.797 1.558 0 2.822 1.252 2.822 2.797zm16.936 0c0 1.545-1.264 2.797-2.823 2.797s-2.823-1.252-2.823-2.797c0-1.545 1.264-2.797 2.823-2.797s2.823 1.252 2.823 2.797zm16.935 0c0 1.545-1.264 2.797-2.823 2.797-1.558 0-2.822-1.252-2.822-2.797 0-1.545 1.264-2.797 2.822-2.797 1.56 0 2.823 1.252 2.823 2.797zm16.936 0c0 1.545-1.264 2.797-2.823 2.797s-2.823-1.252-2.823-2.797c0-1.545 1.264-2.797 2.823-2.797s2.823 1.252 2.823 2.797zm16.935 0c0 1.545-1.264 2.797-2.823 2.797-1.558 0-2.822-1.252-2.822-2.797 0-1.545 1.264-2.797 2.822-2.797 1.559 0 2.823 1.252 2.823 2.797zm16.936 0c0 1.545-1.264 2.797-2.823 2.797s-2.823-1.252-2.823-2.797c0-1.545 1.264-2.797 2.823-2.797s2.823 1.252 2.823 2.797zm16.935 0c0 1.545-1.264 2.797-2.823 2.797-1.558 0-2.822-1.252-2.822-2.797 0-1.545 1.264-2.797 2.822-2.797 1.559 0 2.823 1.252 2.823 2.797zm16.936 0c0 1.545-1.264 2.797-2.823 2.797s-2.823-1.252-2.823-2.797c0-1.545 1.264-2.797 2.823-2.797s2.823 1.252 2.823 2.797zm16.935 0c0 1.545-1.264 2.797-2.823 2.797-1.558 0-2.822-1.252-2.822-2.797 0-1.545 1.264-2.797 2.822-2.797 1.559 0 2.823 1.252 2.823 2.797zM5.645 220.953c0 1.545-1.264 2.797-2.822 2.797-1.56 0-2.823-1.252-2.823-2.797 0-1.545 1.264-2.797 2.823-2.797 1.558 0 2.822 1.252 2.822 2.797zm16.935 0c0 1.545-1.263 2.797-2.822 2.797-1.559 0-2.822-1.252-2.822-2.797 0-1.545 1.263-2.797 2.822-2.797 1.559 0 2.823 1.252 2.823 2.797zm16.936 0c0 1.545-1.264 2.797-2.822 2.797-1.56 0-2.823-1.252-2.823-2.797 0-1.545 1.264-2.797 2.823-2.797 1.558 0 2.822 1.252 2.822 2.797zm16.936 0c0 1.545-1.264 2.797-2.823 2.797s-2.823-1.252-2.823-2.797c0-1.545 1.264-2.797 2.823-2.797s2.823 1.252 2.823 2.797zm16.935 0c0 1.545-1.264 2.797-2.823 2.797-1.558 0-2.822-1.252-2.822-2.797 0-1.545 1.264-2.797 2.822-2.797 1.56 0 2.823 1.252 2.823 2.797zm16.936 0c0 1.545-1.264 2.797-2.823 2.797s-2.823-1.252-2.823-2.797c0-1.545 1.264-2.797 2.823-2.797s2.823 1.252 2.823 2.797zm16.935 0c0 1.545-1.264 2.797-2.823 2.797-1.558 0-2.822-1.252-2.822-2.797 0-1.545 1.264-2.797 2.822-2.797 1.559 0 2.823 1.252 2.823 2.797zm16.936 0c0 1.545-1.264 2.797-2.823 2.797s-2.823-1.252-2.823-2.797c0-1.545 1.264-2.797 2.823-2.797s2.823 1.252 2.823 2.797zm16.935 0c0 1.545-1.264 2.797-2.823 2.797-1.558 0-2.822-1.252-2.822-2.797 0-1.545 1.264-2.797 2.822-2.797 1.559 0 2.823 1.252 2.823 2.797zm16.936 0c0 1.545-1.264 2.797-2.823 2.797s-2.823-1.252-2.823-2.797c0-1.545 1.264-2.797 2.823-2.797s2.823 1.252 2.823 2.797zm16.935 0c0 1.545-1.264 2.797-2.823 2.797-1.558 0-2.822-1.252-2.822-2.797 0-1.545 1.264-2.797 2.822-2.797 1.559 0 2.823 1.252 2.823 2.797zM5.645 237.734c0 1.545-1.264 2.797-2.822 2.797-1.56 0-2.823-1.252-2.823-2.797 0-1.544 1.264-2.796 2.823-2.796 1.558 0 2.822 1.252 2.822 2.796zm16.935 0c0 1.545-1.263 2.797-2.822 2.797-1.559 0-2.822-1.252-2.822-2.797 0-1.544 1.263-2.796 2.822-2.796 1.559 0 2.823 1.252 2.823 2.796zm16.936 0c0 1.545-1.264 2.797-2.822 2.797-1.56 0-2.823-1.252-2.823-2.797 0-1.544 1.264-2.796 2.823-2.796 1.558 0 2.822 1.252 2.822 2.796zm16.936 0c0 1.545-1.264 2.797-2.823 2.797s-2.823-1.252-2.823-2.797c0-1.544 1.264-2.796 2.823-2.796s2.823 1.252 2.823 2.796zm16.935 0c0 1.545-1.264 2.797-2.823 2.797-1.558 0-2.822-1.252-2.822-2.797 0-1.544 1.264-2.796 2.822-2.796 1.56 0 2.823 1.252 2.823 2.796zm16.936 0c0 1.545-1.264 2.797-2.823 2.797s-2.823-1.252-2.823-2.797c0-1.544 1.264-2.796 2.823-2.796s2.823 1.252 2.823 2.796zm16.935 0c0 1.545-1.264 2.797-2.823 2.797-1.558 0-2.822-1.252-2.822-2.797 0-1.544 1.264-2.796 2.822-2.796 1.559 0 2.823 1.252 2.823 2.796zm16.936 0c0 1.545-1.264 2.797-2.823 2.797s-2.823-1.252-2.823-2.797c0-1.544 1.264-2.796 2.823-2.796s2.823 1.252 2.823 2.796zm16.935 0c0 1.545-1.264 2.797-2.823 2.797-1.558 0-2.822-1.252-2.822-2.797 0-1.544 1.264-2.796 2.822-2.796 1.559 0 2.823 1.252 2.823 2.796zm16.936 0c0 1.545-1.264 2.797-2.823 2.797s-2.823-1.252-2.823-2.797c0-1.544 1.264-2.796 2.823-2.796s2.823 1.252 2.823 2.796zm16.935 0c0 1.545-1.264 2.797-2.823 2.797-1.558 0-2.822-1.252-2.822-2.797 0-1.544 1.264-2.796 2.822-2.796 1.559 0 2.823 1.252 2.823 2.796zM5.645 254.516c0 1.544-1.264 2.796-2.822 2.796-1.56 0-2.823-1.252-2.823-2.796 0-1.545 1.264-2.797 2.823-2.797 1.558 0 2.822 1.252 2.822 2.797zm16.935 0c0 1.544-1.263 2.796-2.822 2.796-1.559 0-2.822-1.252-2.822-2.796 0-1.545 1.263-2.797 2.822-2.797 1.559 0 2.823 1.252 2.823 2.797zm16.936 0c0 1.544-1.264 2.796-2.822 2.796-1.56 0-2.823-1.252-2.823-2.796 0-1.545 1.264-2.797 2.823-2.797 1.558 0 2.822 1.252 2.822 2.797zm16.936 0c0 1.544-1.264 2.796-2.823 2.796s-2.823-1.252-2.823-2.796c0-1.545 1.264-2.797 2.823-2.797s2.823 1.252 2.823 2.797zm16.935 0c0 1.544-1.264 2.796-2.823 2.796-1.558 0-2.822-1.252-2.822-2.796 0-1.545 1.264-2.797 2.822-2.797 1.56 0 2.823 1.252 2.823 2.797zm16.936 0c0 1.544-1.264 2.796-2.823 2.796s-2.823-1.252-2.823-2.796c0-1.545 1.264-2.797 2.823-2.797s2.823 1.252 2.823 2.797zm16.935 0c0 1.544-1.264 2.796-2.823 2.796-1.558 0-2.822-1.252-2.822-2.796 0-1.545 1.264-2.797 2.822-2.797 1.559 0 2.823 1.252 2.823 2.797zm16.936 0c0 1.544-1.264 2.796-2.823 2.796s-2.823-1.252-2.823-2.796c0-1.545 1.264-2.797 2.823-2.797s2.823 1.252 2.823 2.797zm16.935 0c0 1.544-1.264 2.796-2.823 2.796-1.558 0-2.822-1.252-2.822-2.796 0-1.545 1.264-2.797 2.822-2.797 1.559 0 2.823 1.252 2.823 2.797zm16.936 0c0 1.544-1.264 2.796-2.823 2.796s-2.823-1.252-2.823-2.796c0-1.545 1.264-2.797 2.823-2.797s2.823 1.252 2.823 2.797zm16.935 0c0 1.544-1.264 2.796-2.823 2.796-1.558 0-2.822-1.252-2.822-2.796 0-1.545 1.264-2.797 2.822-2.797 1.559 0 2.823 1.252 2.823 2.797zM5.645 271.297c0 1.545-1.264 2.797-2.822 2.797-1.56 0-2.823-1.252-2.823-2.797 0-1.545 1.264-2.797 2.823-2.797 1.558 0 2.822 1.252 2.822 2.797zm16.935 0c0 1.545-1.263 2.797-2.822 2.797-1.559 0-2.822-1.252-2.822-2.797 0-1.545 1.263-2.797 2.822-2.797 1.559 0 2.823 1.252 2.823 2.797zm16.936 0c0 1.545-1.264 2.797-2.822 2.797-1.56 0-2.823-1.252-2.823-2.797 0-1.545 1.264-2.797 2.823-2.797 1.558 0 2.822 1.252 2.822 2.797zm16.936 0c0 1.545-1.264 2.797-2.823 2.797s-2.823-1.252-2.823-2.797c0-1.545 1.264-2.797 2.823-2.797s2.823 1.252 2.823 2.797zm16.935 0c0 1.545-1.264 2.797-2.823 2.797-1.558 0-2.822-1.252-2.822-2.797 0-1.545 1.264-2.797 2.822-2.797 1.56 0 2.823 1.252 2.823 2.797zm16.936 0c0 1.545-1.264 2.797-2.823 2.797s-2.823-1.252-2.823-2.797c0-1.545 1.264-2.797 2.823-2.797s2.823 1.252 2.823 2.797zm16.935 0c0 1.545-1.264 2.797-2.823 2.797-1.558 0-2.822-1.252-2.822-2.797 0-1.545 1.264-2.797 2.822-2.797 1.559 0 2.823 1.252 2.823 2.797zm16.936 0c0 1.545-1.264 2.797-2.823 2.797s-2.823-1.252-2.823-2.797c0-1.545 1.264-2.797 2.823-2.797s2.823 1.252 2.823 2.797zm16.935 0c0 1.545-1.264 2.797-2.823 2.797-1.558 0-2.822-1.252-2.822-2.797 0-1.545 1.264-2.797 2.822-2.797 1.559 0 2.823 1.252 2.823 2.797zm16.936 0c0 1.545-1.264 2.797-2.823 2.797s-2.823-1.252-2.823-2.797c0-1.545 1.264-2.797 2.823-2.797s2.823 1.252 2.823 2.797zm16.935 0c0 1.545-1.264 2.797-2.823 2.797-1.558 0-2.822-1.252-2.822-2.797 0-1.545 1.264-2.797 2.822-2.797 1.559 0 2.823 1.252 2.823 2.797zM5.645 288.078c0 1.545-1.264 2.797-2.822 2.797-1.56 0-2.823-1.252-2.823-2.797 0-1.545 1.264-2.797 2.823-2.797 1.558 0 2.822 1.252 2.822 2.797zm16.935 0c0 1.545-1.263 2.797-2.822 2.797-1.559 0-2.822-1.252-2.822-2.797 0-1.545 1.263-2.797 2.822-2.797 1.559 0 2.823 1.252 2.823 2.797zm16.936 0c0 1.545-1.264 2.797-2.822 2.797-1.56 0-2.823-1.252-2.823-2.797 0-1.545 1.264-2.797 2.823-2.797 1.558 0 2.822 1.252 2.822 2.797zm16.936 0c0 1.545-1.264 2.797-2.823 2.797s-2.823-1.252-2.823-2.797c0-1.545 1.264-2.797 2.823-2.797s2.823 1.252 2.823 2.797zm16.935 0c0 1.545-1.264 2.797-2.823 2.797-1.558 0-2.822-1.252-2.822-2.797 0-1.545 1.264-2.797 2.822-2.797 1.56 0 2.823 1.252 2.823 2.797zm16.936 0c0 1.545-1.264 2.797-2.823 2.797s-2.823-1.252-2.823-2.797c0-1.545 1.264-2.797 2.823-2.797s2.823 1.252 2.823 2.797zm16.935 0c0 1.545-1.264 2.797-2.823 2.797-1.558 0-2.822-1.252-2.822-2.797 0-1.545 1.264-2.797 2.822-2.797 1.559 0 2.823 1.252 2.823 2.797zm16.936 0c0 1.545-1.264 2.797-2.823 2.797s-2.823-1.252-2.823-2.797c0-1.545 1.264-2.797 2.823-2.797s2.823 1.252 2.823 2.797zm16.935 0c0 1.545-1.264 2.797-2.823 2.797-1.558 0-2.822-1.252-2.822-2.797 0-1.545 1.264-2.797 2.822-2.797 1.559 0 2.823 1.252 2.823 2.797zm16.936 0c0 1.545-1.264 2.797-2.823 2.797s-2.823-1.252-2.823-2.797c0-1.545 1.264-2.797 2.823-2.797s2.823 1.252 2.823 2.797zm16.935 0c0 1.545-1.264 2.797-2.823 2.797-1.558 0-2.822-1.252-2.822-2.797 0-1.545 1.264-2.797 2.822-2.797 1.559 0 2.823 1.252 2.823 2.797zM5.645 304.859c0 1.545-1.264 2.797-2.822 2.797-1.56 0-2.823-1.252-2.823-2.797 0-1.544 1.264-2.797 2.823-2.797 1.558 0 2.822 1.253 2.822 2.797zm16.935 0c0 1.545-1.263 2.797-2.822 2.797-1.559 0-2.822-1.252-2.822-2.797 0-1.544 1.263-2.797 2.822-2.797 1.559 0 2.823 1.253 2.823 2.797zm16.936 0c0 1.545-1.264 2.797-2.822 2.797-1.56 0-2.823-1.252-2.823-2.797 0-1.544 1.264-2.797 2.823-2.797 1.558 0 2.822 1.253 2.822 2.797zm16.936 0c0 1.545-1.264 2.797-2.823 2.797s-2.823-1.252-2.823-2.797c0-1.544 1.264-2.797 2.823-2.797s2.823 1.253 2.823 2.797zm16.935 0c0 1.545-1.264 2.797-2.823 2.797-1.558 0-2.822-1.252-2.822-2.797 0-1.544 1.264-2.797 2.822-2.797 1.56 0 2.823 1.253 2.823 2.797zm16.936 0c0 1.545-1.264 2.797-2.823 2.797s-2.823-1.252-2.823-2.797c0-1.544 1.264-2.797 2.823-2.797s2.823 1.253 2.823 2.797zm16.935 0c0 1.545-1.264 2.797-2.823 2.797-1.558 0-2.822-1.252-2.822-2.797 0-1.544 1.264-2.797 2.822-2.797 1.559 0 2.823 1.253 2.823 2.797zm16.936 0c0 1.545-1.264 2.797-2.823 2.797s-2.823-1.252-2.823-2.797c0-1.544 1.264-2.797 2.823-2.797s2.823 1.253 2.823 2.797zm16.935 0c0 1.545-1.264 2.797-2.823 2.797-1.558 0-2.822-1.252-2.822-2.797 0-1.544 1.264-2.797 2.822-2.797 1.559 0 2.823 1.253 2.823 2.797zm16.936 0c0 1.545-1.264 2.797-2.823 2.797s-2.823-1.252-2.823-2.797c0-1.544 1.264-2.797 2.823-2.797s2.823 1.253 2.823 2.797zm16.935 0c0 1.545-1.264 2.797-2.823 2.797-1.558 0-2.822-1.252-2.822-2.797 0-1.544 1.264-2.797 2.822-2.797 1.559 0 2.823 1.253 2.823 2.797zM5.645 321.641c0 1.544-1.264 2.797-2.822 2.797-1.56 0-2.823-1.253-2.823-2.797 0-1.545 1.264-2.797 2.823-2.797 1.558 0 2.822 1.252 2.822 2.797zm16.935 0c0 1.544-1.263 2.797-2.822 2.797-1.559 0-2.822-1.253-2.822-2.797 0-1.545 1.263-2.797 2.822-2.797 1.559 0 2.823 1.252 2.823 2.797zm16.936 0c0 1.544-1.264 2.797-2.822 2.797-1.56 0-2.823-1.253-2.823-2.797 0-1.545 1.264-2.797 2.823-2.797 1.558 0 2.822 1.252 2.822 2.797zm16.936 0c0 1.544-1.264 2.797-2.823 2.797s-2.823-1.253-2.823-2.797c0-1.545 1.264-2.797 2.823-2.797s2.823 1.252 2.823 2.797zm16.935 0c0 1.544-1.264 2.797-2.823 2.797-1.558 0-2.822-1.253-2.822-2.797 0-1.545 1.264-2.797 2.822-2.797 1.56 0 2.823 1.252 2.823 2.797zm16.936 0c0 1.544-1.264 2.797-2.823 2.797s-2.823-1.253-2.823-2.797c0-1.545 1.264-2.797 2.823-2.797s2.823 1.252 2.823 2.797zm16.935 0c0 1.544-1.264 2.797-2.823 2.797-1.558 0-2.822-1.253-2.822-2.797 0-1.545 1.264-2.797 2.822-2.797 1.559 0 2.823 1.252 2.823 2.797zm16.936 0c0 1.544-1.264 2.797-2.823 2.797s-2.823-1.253-2.823-2.797c0-1.545 1.264-2.797 2.823-2.797s2.823 1.252 2.823 2.797zm16.935 0c0 1.544-1.264 2.797-2.823 2.797-1.558 0-2.822-1.253-2.822-2.797 0-1.545 1.264-2.797 2.822-2.797 1.559 0 2.823 1.252 2.823 2.797zm16.936 0c0 1.544-1.264 2.797-2.823 2.797s-2.823-1.253-2.823-2.797c0-1.545 1.264-2.797 2.823-2.797s2.823 1.252 2.823 2.797zm16.935 0c0 1.544-1.264 2.797-2.823 2.797-1.558 0-2.822-1.253-2.822-2.797 0-1.545 1.264-2.797 2.822-2.797 1.559 0 2.823 1.252 2.823 2.797zM5.645 338.422c0 1.545-1.264 2.797-2.822 2.797-1.56 0-2.823-1.252-2.823-2.797 0-1.545 1.264-2.797 2.823-2.797 1.558 0 2.822 1.252 2.822 2.797zm16.935 0c0 1.545-1.263 2.797-2.822 2.797-1.559 0-2.822-1.252-2.822-2.797 0-1.545 1.263-2.797 2.822-2.797 1.559 0 2.823 1.252 2.823 2.797zm16.936 0c0 1.545-1.264 2.797-2.822 2.797-1.56 0-2.823-1.252-2.823-2.797 0-1.545 1.264-2.797 2.823-2.797 1.558 0 2.822 1.252 2.822 2.797zm16.936 0c0 1.545-1.264 2.797-2.823 2.797s-2.823-1.252-2.823-2.797c0-1.545 1.264-2.797 2.823-2.797s2.823 1.252 2.823 2.797zm16.935 0c0 1.545-1.264 2.797-2.823 2.797-1.558 0-2.822-1.252-2.822-2.797 0-1.545 1.264-2.797 2.822-2.797 1.56 0 2.823 1.252 2.823 2.797zm16.936 0c0 1.545-1.264 2.797-2.823 2.797s-2.823-1.252-2.823-2.797c0-1.545 1.264-2.797 2.823-2.797s2.823 1.252 2.823 2.797zm16.935 0c0 1.545-1.264 2.797-2.823 2.797-1.558 0-2.822-1.252-2.822-2.797 0-1.545 1.264-2.797 2.822-2.797 1.559 0 2.823 1.252 2.823 2.797zm16.936 0c0 1.545-1.264 2.797-2.823 2.797s-2.823-1.252-2.823-2.797c0-1.545 1.264-2.797 2.823-2.797s2.823 1.252 2.823 2.797zm16.935 0c0 1.545-1.264 2.797-2.823 2.797-1.558 0-2.822-1.252-2.822-2.797 0-1.545 1.264-2.797 2.822-2.797 1.559 0 2.823 1.252 2.823 2.797zm16.936 0c0 1.545-1.264 2.797-2.823 2.797s-2.823-1.252-2.823-2.797c0-1.545 1.264-2.797 2.823-2.797s2.823 1.252 2.823 2.797zm16.935 0c0 1.545-1.264 2.797-2.823 2.797-1.558 0-2.822-1.252-2.822-2.797 0-1.545 1.264-2.797 2.822-2.797 1.559 0 2.823 1.252 2.823 2.797zM5.645 355.203c0 1.545-1.264 2.797-2.822 2.797C1.263 358 0 356.748 0 355.203c0-1.545 1.264-2.797 2.823-2.797 1.558 0 2.822 1.252 2.822 2.797zm16.935 0c0 1.545-1.263 2.797-2.822 2.797-1.559 0-2.822-1.252-2.822-2.797 0-1.545 1.263-2.797 2.822-2.797 1.559 0 2.823 1.252 2.823 2.797zm16.936 0c0 1.545-1.264 2.797-2.822 2.797-1.56 0-2.823-1.252-2.823-2.797 0-1.545 1.264-2.797 2.823-2.797 1.558 0 2.822 1.252 2.822 2.797zm16.936 0c0 1.545-1.264 2.797-2.823 2.797s-2.823-1.252-2.823-2.797c0-1.545 1.264-2.797 2.823-2.797s2.823 1.252 2.823 2.797zm16.935 0c0 1.545-1.264 2.797-2.823 2.797-1.558 0-2.822-1.252-2.822-2.797 0-1.545 1.264-2.797 2.822-2.797 1.56 0 2.823 1.252 2.823 2.797zm16.936 0c0 1.545-1.264 2.797-2.823 2.797s-2.823-1.252-2.823-2.797c0-1.545 1.264-2.797 2.823-2.797s2.823 1.252 2.823 2.797zm16.935 0c0 1.545-1.264 2.797-2.823 2.797-1.558 0-2.822-1.252-2.822-2.797 0-1.545 1.264-2.797 2.822-2.797 1.559 0 2.823 1.252 2.823 2.797zm16.936 0c0 1.545-1.264 2.797-2.823 2.797s-2.823-1.252-2.823-2.797c0-1.545 1.264-2.797 2.823-2.797s2.823 1.252 2.823 2.797zm16.935 0c0 1.545-1.264 2.797-2.823 2.797-1.558 0-2.822-1.252-2.822-2.797 0-1.545 1.264-2.797 2.822-2.797 1.559 0 2.823 1.252 2.823 2.797zm16.936 0c0 1.545-1.264 2.797-2.823 2.797s-2.823-1.252-2.823-2.797c0-1.545 1.264-2.797 2.823-2.797s2.823 1.252 2.823 2.797zm16.935 0c0 1.545-1.264 2.797-2.823 2.797-1.558 0-2.822-1.252-2.822-2.797 0-1.545 1.264-2.797 2.822-2.797 1.559 0 2.823 1.252 2.823 2.797z"/></svg>