<svg xmlns="http://www.w3.org/2000/svg" width="251" height="135" fill="none"><path fill="#4C81C2" d="M70.4 17.96c-27.43 0-49.74 22.31-49.74 49.74 0 27.43 22.31 49.74 49.74 49.74 27.43 0 49.74-22.31 49.74-49.74 0-27.43-22.31-49.74-49.74-49.74zm0 97.11c-26.12 0-47.37-21.25-47.37-47.37 0-26.12 21.25-47.37 47.37-47.37 26.12 0 47.37 21.25 47.37 47.37 0 26.12-21.25 47.37-47.37 47.37z"/><path fill="#4C81C2" d="M108.42 44.62c-.67-.52-1.37-.66-2.11-.42-.74.24-1.48.71-2.22 1.42-.74.7-1.45 1.56-2.14 2.55a55.794 55.794 0 0 0-3.47 5.78c-.44.85-.78 1.46-1 1.83-1.66 2.92-3.29 5.88-4.86 8.88-.96 1.84-1.84 3.72-2.64 5.63-1.36 1.62-2.74 3.26-4.14 4.95a51.96 51.96 0 0 1-5.36 5.61c-.33.33-.7.68-1.11 1.03-.41.35-.83.68-1.28.97-.44.3-.92.55-1.41.75-.5.2-.99.31-1.47.31-.67.04-1.18-.07-1.55-.33-.37-.26-.63-.6-.78-1.03-.15-.42-.2-.89-.17-1.41.04-.52.13-1.02.28-1.5.48-1.44 1.12-2.82 1.92-4.14.79-1.31 1.64-2.61 2.53-3.88.89-1.28 1.78-2.56 2.66-3.86.65-.94 1.23-1.9 1.76-2.86.02-.02.05-.03.07-.05 2.25-1.51 4.22-3.17 5.93-4.98a27.9 27.9 0 0 0 3.62-4.69c1.1-1.76 1.94-3.6 2.53-5.53.59-1.93.84-3.87.77-5.82-.07-1.95-.65-3.86-1.72-5.71-1.17-1.95-2.7-3.43-4.58-4.43-1.88-1-3.92-1.69-6.11-2.05-2.2-.37-4.44-.48-6.74-.33-2.3.15-4.39.39-6.3.73-2.93.54-5.97 1.36-9.12 2.45a65.78 65.78 0 0 0-9.26 4.07 57.999 57.999 0 0 0-8.57 5.57c-2.69 2.1-5.03 4.43-7.03 7-2 2.56-3.57 5.35-4.69 8.35-1.12 3-1.61 6.21-1.46 9.63 0 1.17.12 2.43.37 3.77.24 1.34.66 2.58 1.25 3.7.24.59.58 1.22 1.03 1.9.44.68.94 1.34 1.5 1.98.56.64 1.17 1.16 1.83 1.58.66.42 1.36.62 2.09.62.34 0 .65-.15.92-.44.27-.29.35-.63.26-1.03-.1-.39-.35-.67-.77-.84a9.93 9.93 0 0 1-1.13-.55 7.55 7.55 0 0 1-2.16-1.91c-.61-.78-1.11-1.65-1.5-2.6-.39-.95-.68-1.94-.88-2.97-.2-1.03-.29-2.03-.29-3 0-3.22.64-6.21 1.91-8.97a30.39 30.39 0 0 1 5.02-7.62c2.08-2.32 4.41-4.41 7-6.26 2.59-1.86 5.2-3.47 7.84-4.83a69.67 69.67 0 0 1 9.59-3.99c3.32-1.1 6.71-1.84 10.18-2.23 1.32-.15 2.76-.23 4.32-.26 1.56-.02 3.1.1 4.62.37 1.51.27 2.92.75 4.21 1.43 1.29.68 2.33 1.68 3.11 3 1.07 1.86 1.5 3.81 1.28 5.86-.22 2.05-.83 4.03-1.83 5.93-1 1.9-2.25 3.67-3.73 5.31-.53.58-1.05 1.11-1.56 1.62-.02-.16-.05-.32-.09-.48-.15-.61-.5-1.16-1.06-1.64-.59-.55-1.23-.89-1.92-1-.69-.11-1.37-.08-2.05.08-.69.17-1.36.44-2.03.81-.67.37-1.28.76-1.83 1.17-2.11 1.55-4.14 3.38-6.08 5.47a96.68 96.68 0 0 0-3.44 3.93c-.2 0-.39.01-.59.01-1.14-.02-2.35-.2-3.63-.53.22-.42.43-.83.64-1.22 1.92-2.07 3.81-4.16 5.66-6.27 1.85-2.11 3.63-4.28 5.33-6.5.56-.74 1.1-1.47 1.64-2.19.54-.72 1.01-1.4 1.42-2.03.41-.63.69-1.2.86-1.72.17-.52.17-.94.03-1.28-.33-.59-.78-.87-1.33-.83-.55.04-1.17.26-1.83.67-.67.41-1.33.94-2 1.61-.67.67-1.28 1.33-1.83 2-2.89 3.41-5.51 7.14-7.86 11.21A118.31 118.31 0 0 0 55.22 73c-.15.33-.37.83-.67 1.5-.29.67-.6 1.41-.91 2.25-.31.84-.62 1.7-.92 2.61-.3.91-.52 1.77-.67 2.58-.15.81-.18 1.55-.11 2.19.07.65.31 1.12.72 1.42.3.19.61.29.94.31.33.02.59-.17.78-.58a57.2 57.2 0 0 1 4.03-6.6c1.46-2.07 2.97-4.14 4.52-6.22.76-1.02 1.53-2.01 2.31-3 .69.09 1.38.15 2.09.16 2.59.03 5.11-.38 7.58-1.21.85-.29 1.68-.63 2.5-.99-.57.81-1.01 1.45-1.32 1.88-.59.89-1.23 1.82-1.92 2.78-.69.96-1.31 1.95-1.89 2.97-.57 1.02-1.06 2.06-1.47 3.14a9.104 9.104 0 0 0-.61 3.27c0 .67.12 1.3.36 1.89.24.59.58 1.1 1.03 1.53.45.43.96.75 1.55.97.59.22 1.22.3 1.89.22.67-.04 1.29-.2 1.89-.47.59-.28 1.16-.61 1.72-1s1.07-.8 1.56-1.25c.48-.44.94-.89 1.39-1.33a80.4 80.4 0 0 0 5.27-5.94c.63-.78 1.24-1.58 1.84-2.39-.04.1-.08.2-.11.3-.22.67-.44 1.36-.67 2.08-.22.72-.41 1.45-.56 2.19-.15.74-.24 1.49-.28 2.25-.04.76.04 1.49.22 2.19.22.74.57 1.36 1.03 1.86.46.5 1 .86 1.61 1.08.61.22 1.27.32 1.97.28.7-.03 1.37-.22 2-.55 1.33-.67 2.61-1.6 3.83-2.8a34.61 34.61 0 0 0 3.41-3.91 61.46 61.46 0 0 0 2.94-4.28c.91-1.44 1.69-2.76 2.36-3.94.33-.59.4-.96.2-1.11-.21-.15-.47.02-.81.5-.81 1.11-1.64 2.29-2.47 3.53-.83 1.24-1.71 2.44-2.64 3.61a31.23 31.23 0 0 1-3 3.3 18.273 18.273 0 0 1-3.5 2.66c-.63.33-1.24.56-1.83.67-.59.11-1.12.07-1.58-.11-.46-.18-.82-.51-1.08-.97-.26-.46-.37-1.1-.33-1.92.08-1.55.45-3.19 1.14-4.91.68-1.72 1.56-3.78 2.63-6.19 2.44-3 4.85-6.03 7.22-9.1 2.37-3.07 4.63-6.38 6.77-9.94.22-.33.49-.76.8-1.28.32-.52.58-1.06.8-1.61.22-.55.33-1.09.33-1.61-.02-.58-.24-1.01-.68-1.34zM67.38 55.59c1-1.52 2.2-3.16 3.61-4.94 1.44-1.89 2.29-2.77 2.53-2.64.24.13-.29 1.08-1.58 2.86a69.47 69.47 0 0 1-3.02 3.8c-1.2 1.42-2.66 3.23-4.36 5.41.88-1.48 1.82-2.97 2.82-4.49zm-4.27 13.93c-1.7 2.22-3.28 4.38-4.72 6.47s-2.68 3.88-3.72 5.36c.15-.93.47-2.06.97-3.41s1.08-2.78 1.75-4.28c.67-1.5 1.37-2.98 2.11-4.44.23-.46.46-.91.69-1.35 1.07.52 2.16.92 3.28 1.2-.13.15-.25.3-.36.45zm11.65-4.76c-2.2 1.03-4.44 1.71-6.74 2.05-.25.03-.52.05-.78.07 1.5-1.79 3.12-3.51 4.86-5.13.44-.41 1.04-.94 1.8-1.61.76-.67 1.57-1.25 2.44-1.75.87-.5 1.72-.82 2.55-.97.83-.15 1.53.09 2.08.72.44.52.51 1.29.19 2.3-.05.17-.12.35-.18.53l-.16.13a32.018 32.018 0 0 1-6.06 3.66zM107 46.84c-.09.37-.36.96-.8 1.78-1.44 2.63-3.07 5.2-4.89 7.72a607.23 607.23 0 0 0-5.61 7.94c1.77-3.26 3.44-6.22 4.99-8.88 1.56-2.67 2.94-4.94 4.16-6.83.48-.7.9-1.25 1.25-1.64.35-.39.61-.59.78-.61.18-.02.21.15.12.52zM37.11 89.71h-1.14v4.91h.77v-1.85h.36c.77 0 1.15-.4 1.15-1.21v-.64c.01-.81-.37-1.21-1.14-1.21zm.38 1.9c0 .17-.03.29-.09.36a.36.36 0 0 1-.28.11h-.36v-1.66h.36c.13 0 .22.03.28.1.06.07.09.19.09.36v.73zm2.32-1.9-.79 4.91h.71l.13-.89h.95l.13.89h.78l-.79-4.91h-1.12zm.16 3.35.37-2.48.37 2.48h-.74zm4.46-.86c-.15-.14-.3-.28-.45-.41-.15-.13-.27-.28-.38-.44a.955.955 0 0 1-.15-.52c0-.32.13-.48.39-.48s.39.16.39.48v.2h.73v-.15c0-.4-.1-.7-.29-.92-.19-.21-.47-.32-.85-.32s-.66.11-.85.32c-.19.21-.29.52-.29.92a1.674 1.674 0 0 0 .53 1.24c.15.14.3.28.45.41.15.13.27.28.38.44.1.16.15.33.15.52 0 .32-.13.48-.4.48s-.4-.16-.4-.48v-.35h-.73v.3c0 .4.1.7.29.92.2.21.48.32.86.32s.66-.11.86-.32c.2-.21.29-.52.29-.92 0-.26-.05-.49-.15-.71-.11-.21-.23-.39-.38-.53zm2.25-2.49-.79 4.91h.71l.13-.89h.95l.13.89h.78l-.79-4.91h-1.12zm.15 3.35.37-2.48.37 2.48h-.74zm4.57-.41-.79-2.94h-.97v4.91h.69v-3.56l.96 3.56h.8v-4.91h-.69v2.94zm1.71-2.24h.81v4.21h.77v-4.21h.81v-.7h-2.39v.7zm3.42 4.21h2.1v-.71H57.3v-1.43h1.06v-.7H57.3v-1.37h1.33v-.7h-2.1v4.91zm6.7-2.81h-.88v-2.1h-.77v4.91h.77v-2.11h.88v2.11h.78v-4.91h-.78v2.1zm2.04 2.81h2.11v-.71h-1.34v-1.43h1.06v-.7h-1.06v-1.37h1.34v-.7h-2.11v4.91zm3.87-4.91-.79 4.91h.71l.13-.89h.95l.13.89h.78l-.79-4.91h-1.12zm.15 3.35.37-2.48.37 2.48h-.74zm3.59-3.35h-.78v4.91h2.05v-.71h-1.27v-4.2zm1.73.7h.8v4.21h.78v-4.21h.8v-.7h-2.38v.7zm5.06 1.4h-.87v-2.1h-.78v4.91h.78v-2.11h.87v2.11h.79v-4.91h-.79v2.1zm3.13-2.16c-.37 0-.66.11-.86.32-.2.21-.29.52-.29.92v2.55c0 .4.1.7.29.91.2.21.48.32.86.32s.66-.11.86-.32c.2-.21.29-.52.29-.91v-.65h-.73v.7c0 .32-.13.48-.4.48s-.4-.16-.4-.48v-2.65c0-.32.13-.48.4-.48s.4.16.4.48v.53h.73v-.48c0-.4-.1-.7-.29-.92-.2-.21-.48-.32-.86-.32zm2.9.06-.79 4.91h.71l.13-.89h.95l.13.89h.78l-.79-4.91H85.7zm.15 3.35.37-2.48.37 2.48h-.74zm5.13.2c0-.55-.17-.9-.51-1.04.34-.16.51-.49.51-1v-.39c0-.38-.09-.67-.27-.85-.18-.18-.47-.28-.87-.28h-1.16v4.91h.77v-2h.27c.18 0 .31.05.39.14.08.1.12.26.12.48V94c0 .26.02.46.07.6h.79c-.06-.13-.08-.33-.08-.6v-.74h-.03zm-.78-1.86c0 .19-.04.32-.12.4-.08.08-.19.12-.35.12h-.3v-1.51h.37c.26 0 .39.17.39.51v.48h.01zm1.98 3.22h2.11v-.71h-1.34v-1.43h1.06v-.7h-1.06v-1.37h1.34v-.7h-2.11v4.91zm5.57-4.91h-.77v4.92h2.05v-.7h-1.28v-4.22zm1.74.7h.81v4.22h.77v-4.22h.81v-.7h-2.39v.7zm4.66-.7h-1.22v4.93h1.22c.77 0 1.15-.41 1.15-1.22v-2.49c0-.82-.38-1.22-1.15-1.22zm.38 3.74c0 .32-.13.48-.39.48h-.44v-3.52h.44c.26 0 .39.16.39.48v2.56z"/><mask id="a" width="101" height="102" x="130" y="17" maskUnits="userSpaceOnUse" style="mask-type:luminance"><path fill="#fff" d="M230.16 17.96H130.05v100.1h100.11V17.96z"/></mask><g mask="url(#a)"><mask id="b" width="101" height="102" x="130" y="17" maskUnits="userSpaceOnUse" style="mask-type:luminance"><path fill="#fff" d="M230.16 17.96H130.05v100.1h100.11V17.96z"/></mask><g mask="url(#b)"><path fill="#981F23" d="M230.15 68.02c0 27.64-22.41 50.04-50.07 50.04-27.62 0-50.04-22.4-50.04-50.04 0-27.67 22.41-50.06 50.04-50.06 27.66 0 50.07 22.4 50.07 50.06z"/></g><mask id="c" width="101" height="102" x="130" y="17" maskUnits="userSpaceOnUse" style="mask-type:luminance"><path fill="#fff" d="M230.16 17.96H130.05v100.1h100.11V17.96z"/></mask><g mask="url(#c)"><path fill="#fff" d="m157.98 81.91-4.35-6.82 2.09-1.92c1.31-1.17 1.93-2.13 1.93-2.9 0-.63-.24-1.17-.66-1.59-.47-.46-1.03-.65-1.68-.65-.55 0-1.03.13-1.42.42-.34.27-.82.72-1.47 1.38l-4.23 4.44V60.03c0-1-.24-1.77-.7-2.31-.48-.58-1.14-.86-1.93-.86-.85 0-1.49.33-1.96.94-.41.59-.63 1.44-.63 2.48v23.4c0 .99.23 1.74.67 2.3.45.52 1.12.8 1.92.8.68 0 1.31-.28 1.83-.8.52-.54.8-1.31.8-2.27V80.4l1.88-1.8 3.65 5.96c.49.8.9 1.34 1.21 1.65.37.39.9.58 1.55.58.73 0 1.35-.24 1.82-.73.45-.48.68-1.14.68-1.95 0-.3-.1-.63-.27-1-.14-.27-.38-.65-.73-1.2z"/></g><mask id="d" width="101" height="102" x="130" y="17" maskUnits="userSpaceOnUse" style="mask-type:luminance"><path fill="#fff" d="M230.16 17.96H130.05v100.1h100.11V17.96z"/></mask><g mask="url(#d)"><path fill="#fff" d="M176.58 80.25c0-.9.01-1.66.01-2.43V75.2c0-1.67-.24-3.07-.73-4.12-.48-1.09-1.35-1.87-2.56-2.37-1.16-.51-2.72-.72-4.73-.72-1.79 0-3.28.24-4.49.73-1.24.49-2.17 1.15-2.77 1.93-.59.82-.9 1.66-.9 2.52 0 .62.24 1.14.68 1.52.45.41.97.6 1.59.6.66 0 1.4-.31 1.87-.87.64-.73 1.73-2.55 4.02-2.55 2.31 0 2.77 1.49 2.84 2.65-.79.23-1.54.44-2.22.58-.79.19-1.75.42-2.85.62-1.13.25-1.82.38-2.1.43-1.41.34-2.55.94-3.37 1.86-.84.93-1.26 2.06-1.26 3.37 0 .96.25 1.86.76 2.7.5.81 1.21 1.5 2.14 1.96.9.48 1.99.72 3.16.72 1.31 0 2.47-.22 3.53-.65.92-.38 1.86-.96 2.83-1.66.41.68.82 1.17 1.21 1.55.54.52 1.07.76 1.64.76.65 0 1.21-.22 1.73-.65.51-.48.86-.99.78-1.58-.12-.9-.81-1.29-.81-4.28zm-7.15 2.28c-.66.34-2.03.92-3.21.55-1.09-.31-1.31-1.39-1.28-1.99.06-.56.24-1.48 1.63-1.85.47-.12 1.34-.33 2.55-.57.94-.21 2.01-.5 2.42-.62.05 1.39-.32 3.56-2.11 4.48z"/></g><mask id="e" width="101" height="102" x="130" y="17" maskUnits="userSpaceOnUse" style="mask-type:luminance"><path fill="#fff" d="M230.16 17.96H130.05v100.1h100.11V17.96z"/></mask><g mask="url(#e)"><path fill="#fff" d="M190.32 68.82c-.92-.52-1.93-.79-2.92-.79-1 0-2.41.13-3.82 1.73-.13-.94-.86-1.73-2.26-1.73-1.17 0-2.57.58-2.57 3.37v12.29c0 .99.24 1.76.73 2.3.49.52 1.1.8 1.87.8.78 0 1.41-.25 1.9-.8.48-.52.73-1.3.73-2.3V80c0-1.3.04-2.43.14-3.3.08-.9.22-1.68.43-2.31.2-.58.49-1.03.83-1.33.59-.49 1.51-.55 2.83-.13.88.27 1.15.31 1.3.31.53 0 1.04-.2 1.49-.63.45-.42.68-.97.68-1.63.04-.95-.53-1.67-1.36-2.16z"/></g><mask id="f" width="101" height="102" x="130" y="17" maskUnits="userSpaceOnUse" style="mask-type:luminance"><path fill="#fff" d="M230.16 17.96H130.05v100.1h100.11V17.96z"/></mask><g mask="url(#f)"><path fill="#fff" d="m223.36 82.42-3.84-5.47 3.37-4.54c.34-.43.58-.81.75-1.13.18-.38.3-.76.3-1.16 0-.6-.24-1.11-.73-1.52-.46-.39-1.02-.58-1.72-.58-.59 0-1.1.15-1.52.5-.38.34-.79.79-1.27 1.48l-2.45 3.47-2.53-3.47a9.47 9.47 0 0 0-1.25-1.45c-.41-.37-.94-.52-1.54-.52-.71 0-1.31.19-1.73.59-.45.42-.69.92-.69 1.51 0 .68.35 1.43 1.02 2.28l3.36 4.54-3.83 5.47c-.65.93-.98 1.68-.98 2.21 0 .58.24 1.09.75 1.54.47.4 1.03.62 1.69.62.6 0 1.11-.18 1.52-.52.37-.28.78-.8 1.28-1.48l2.93-4.2 2.86 4.2c.47.66.92 1.15 1.28 1.47.42.35.96.54 1.55.54.68 0 1.24-.22 1.71-.61.48-.38.72-.92.72-1.51-.01-.54-.34-1.27-1.01-2.26z"/></g><mask id="g" width="101" height="102" x="130" y="17" maskUnits="userSpaceOnUse" style="mask-type:luminance"><path fill="#fff" d="M230.16 17.96H130.05v100.1h100.11V17.96z"/></mask><g mask="url(#g)"><path fill="#fff" d="M208.81 75.82c0-1.25-.33-2.48-.98-3.72-.65-1.2-1.63-2.2-2.93-2.98-1.29-.73-2.87-1.12-4.64-1.12-1.38 0-2.64.21-3.78.67a7.83 7.83 0 0 0-2.9 1.9c-.78.85-1.37 1.86-1.8 3.03-.38 1.16-.59 2.4-.59 3.77 0 2.86.84 5.18 2.47 6.88 1.65 1.66 3.99 2.54 6.92 2.54 1.28 0 2.7-.15 4.07-.78 1.58-.78 2.44-1.77 2.76-2.37.35-.62.54-1.11.54-1.6 0-.58-.2-1.03-.56-1.37-.37-.32-.83-.46-1.37-.46-.52 0-.94.11-1.24.39-.55.52-1.88 2.42-4.33 2.42-.72 0-1.35-.18-1.94-.53-.59-.31-1.06-.85-1.41-1.54-.3-.6-.48-1.27-.55-2.04h8.71c2.7 0 3.55-1.36 3.55-3.09zm-12.22-.27c.17-1.16.55-2.03 1.1-2.66.65-.68 1.43-1 2.42-1 1.05 0 1.85.33 2.49 1 .56.58.93 1.47 1.06 2.66h-7.07z"/></g></g><path fill="#4C81C2" d="M182.9 134.99H68.06C30.95 134.99.75 104.8.75 67.68.75 30.57 30.94.37 68.06.37H182.9c37.11 0 67.31 30.19 67.31 67.31 0 37.12-30.2 67.31-67.31 67.31zM68.06 3.55C32.7 3.55 3.93 32.32 3.93 67.68s28.77 64.13 64.13 64.13H182.9c35.36 0 64.13-28.77 64.13-64.13S218.26 3.55 182.9 3.55H68.06z"/></svg>