<svg xmlns="http://www.w3.org/2000/svg" width="1286" height="1286" fill="none"><g stroke="#fff" stroke-linecap="round" opacity=".15"><path stroke-dasharray="14 16" stroke-width="9" d="M23.847 796.949c85.211 341.761 431.34 549.741 773.101 464.531 341.762-85.22 549.742-431.345 464.522-773.106-85.21-341.762-431.335-549.737-773.097-464.526-341.761 85.21-549.737 431.34-464.526 773.101z" opacity=".05"/><path stroke-dasharray="48 53" stroke-width="8" d="M611.138 1244.16c332.2 17.41 615.612-237.78 633.022-569.975 17.41-332.2-237.78-615.615-569.976-633.025-332.2-17.41-615.615 237.778-633.025 569.978-17.41 332.2 237.779 615.612 569.979 633.022z" opacity=".11"/><path stroke-dasharray="34 17" stroke-width="8" d="M208.394 1007.06c201.249 239.83 558.822 271.12 798.666 69.87 239.83-201.25 271.12-558.823 69.87-798.662C875.68 38.428 518.107 7.145 278.268 208.394 38.428 409.643 7.145 767.216 208.394 1007.06z" opacity=".16"/><path stroke-dasharray="21 33" stroke-width="7" d="M223.861 969.864c180.709 231.296 514.706 272.306 746.003 91.596 231.296-180.707 272.306-514.704 91.596-746.001C880.752 84.162 546.756 43.152 315.459 223.861 84.162 404.57 43.152 738.567 223.861 969.864z" opacity=".22"/><path stroke-dasharray="15 22" stroke-width="7" d="M677.263 147.836c-273.285-19.11-510.317 186.939-529.427 460.224-19.11 273.285 186.939 510.32 460.224 529.43 273.285 19.11 510.32-186.942 529.43-460.227 19.11-273.285-186.942-510.317-460.227-529.427z" opacity=".27"/><path stroke-dasharray="25 10" stroke-width="7" d="M562.678 1096.27c250.519 44.17 489.412-123.106 533.592-373.626 44.17-250.519-123.107-489.415-373.626-533.588-250.52-44.173-489.415 123.103-533.589 373.622-44.173 250.52 123.103 489.412 373.623 533.592z" opacity=".33"/><path stroke-dasharray="47 49" stroke-width="6" d="M411.096 999.241c196.933 127.889 460.255 71.919 588.145-125.014 127.889-196.934 71.919-460.255-125.014-588.145-196.934-127.89-460.255-71.919-588.145 125.014-127.89 196.933-71.919 460.255 125.014 588.145z" opacity=".39"/><path stroke-dasharray="40 29" stroke-width="6" d="M986.782 459.689C885.729 269.636 649.741 197.488 459.688 298.54 269.636 399.593 197.487 635.581 298.54 825.634c101.053 190.056 337.04 262.206 527.093 161.148 190.057-101.053 262.197-337.04 161.149-527.093z" opacity=".44"/><path stroke-dasharray="46 20" stroke-width="6" d="M797.98 324.21c-175.876-85.781-387.99-12.744-473.771 163.132-85.78 175.876-12.743 387.991 163.133 473.771 175.876 85.777 387.99 12.744 473.771-163.132C1046.89 622.105 973.856 409.99 797.98 324.21z" opacity=".5"/><path stroke-dasharray="12 45" stroke-width="5" d="M767.257 349.132c-162.112-68.813-349.314 6.821-418.126 168.933-68.813 162.112 6.822 349.314 168.934 418.126C680.177 1005 867.378 929.369 936.19 767.257c68.81-162.112-6.821-349.313-168.933-418.125z" opacity=".55"/><path stroke-dasharray="21 39" stroke-width="5" d="M359.602 657.496c8.193 156.329 141.564 276.418 297.894 268.225 156.329-8.193 276.418-141.565 268.225-297.894-8.193-156.33-141.565-276.418-297.894-268.225-156.33 8.193-276.418 141.564-268.225 297.894z" opacity=".61"/><path stroke-dasharray="30 49" stroke-width="5" d="M419.745 533.938c-60.047 123.113-8.921 271.593 114.192 331.64 123.114 60.046 271.594 8.92 331.64-114.193 60.046-123.113 8.921-271.594-114.193-331.64-123.113-60.046-271.593-8.92-331.639 114.193z" opacity=".66"/><path stroke-dasharray="21 48" stroke-width="4" d="M748.954 458.557c-101.678-58.704-231.694-23.867-290.398 77.811-58.704 101.679-23.866 231.694 77.812 290.398 101.678 58.704 231.694 23.867 290.398-77.812 58.704-101.678 23.866-231.693-77.812-290.397z" opacity=".72"/><path stroke-dasharray="18 24" stroke-width="4" d="M465.748 651.933c5.121 97.706 88.478 172.761 186.184 167.641 97.706-5.121 172.761-88.478 167.641-186.184-5.121-97.706-88.478-172.761-186.184-167.641-97.706 5.121-172.761 88.478-167.641 186.184z" opacity=".78"/><path stroke-dasharray="39 49" stroke-width="4" d="M539.01 546.006c-53.381 57.244-50.249 146.924 6.995 200.306 57.245 53.381 146.925 50.25 200.306-6.995s50.25-146.925-6.995-200.306c-57.244-53.381-146.924-50.25-200.306 6.995z" opacity=".83"/><path stroke-dasharray="17 18" stroke-width="3" d="M638.951 536.433c-58.669 2.049-104.568 51.27-102.519 109.938 2.049 58.668 51.27 104.567 109.938 102.519 58.668-2.049 104.567-51.27 102.519-109.938-2.049-58.668-51.27-104.568-109.938-102.519z" opacity=".89"/><path stroke-dasharray="15 33" stroke-width="3" d="M591.687 691.886c27.186 28.152 72.046 28.935 100.198 1.749 28.152-27.186 28.935-72.046 1.749-100.198-27.186-28.153-72.046-28.936-100.198-1.749-28.153 27.186-28.936 72.046-1.749 100.198z" opacity=".94"/><path stroke-dasharray="30 28" stroke-width="3" d="M613.287 622.849c-10.942 16.222-6.661 38.244 9.561 49.186 16.223 10.942 38.244 6.662 49.187-9.561 10.942-16.223 6.661-38.244-9.561-49.186-16.223-10.943-38.244-6.662-49.187 9.561z"/></g><mask id="a" width="694" height="694" x="296" y="296" maskUnits="userSpaceOnUse" style="mask-type:alpha"><path fill="#D9D9D9" d="M990 296H643v111c130.339 0 236 105.661 236 236h111V296zM407 643c0 130.339 105.661 236 236 236v111H296V643h111z"/></mask><g mask="url(#a)"><circle cx="643" cy="643" r="332" fill="#fff" fill-opacity=".18"/></g><mask id="b" width="472" height="472" x="407" y="407" maskUnits="userSpaceOnUse" style="mask-type:alpha"><path fill="#D9D9D9" d="M643 407H407v236h77c0-87.813 71.187-159 159-159v-77zm0 395c87.813 0 159-71.187 159-159h77v236H643v-77z"/></mask><g mask="url(#b)"><circle cx="643" cy="643" r="236" fill="#fff" fill-opacity=".2"/></g><mask id="c" width="318" height="318" x="484" y="484" maskUnits="userSpaceOnUse" style="mask-type:alpha"><path fill="#D9D9D9" d="M643 484h159v159H643V484zM484 643h159v159H484V643z"/></mask><g mask="url(#c)"><circle cx="643" cy="643" r="159" fill="#fff" fill-opacity=".22"/></g></svg>